<mxfile host="app.diagrams.net" agent="Mozilla/5.0 (Windows NT 10.0; Win64; x64) AppleWebKit/537.36 (KHTML, like Gecko) Chrome/138.0.0.0 Safari/537.36" version="27.2.0" pages="4">
  <diagram id="gXHMxZCsztLT47UPZm0U" name="Схема БД">
    <mxGraphModel dx="786" dy="459" grid="1" gridSize="10" guides="1" tooltips="1" connect="1" arrows="1" fold="1" page="1" pageScale="1" pageWidth="827" pageHeight="1169" math="0" shadow="0">
      <root>
        <mxCell id="0" />
        <mxCell id="1" parent="0" />
      </root>
    </mxGraphModel>
  </diagram>
  <diagram id="uQ98Kbksg9Zbm1Iugkqg" name="Страница — 2">
    <mxGraphModel dx="1747" dy="1020" grid="1" gridSize="10" guides="1" tooltips="1" connect="1" arrows="1" fold="1" page="1" pageScale="1" pageWidth="827" pageHeight="1169" math="0" shadow="0">
      <root>
        <mxCell id="0" />
        <mxCell id="1" parent="0" />
      </root>
    </mxGraphModel>
  </diagram>
  <diagram name="Страница — 1" id="R3hKjRefPmFeItwk5S5m">
    <mxGraphModel dx="2137" dy="3103" grid="1" gridSize="10" guides="1" tooltips="1" connect="1" arrows="1" fold="1" page="1" pageScale="1" pageWidth="827" pageHeight="1169" math="0" shadow="0">
      <root>
        <mxCell id="0" />
        <mxCell id="1" parent="0" />
        <mxCell id="6YvLLzjcVaXfIcfit6wH-1" value="&lt;span style=&quot;color: rgb(38, 38, 38); font-family: quote-cjk-patch, Inter, system-ui, -apple-system, BlinkMacSystemFont, &amp;quot;Segoe UI&amp;quot;, Roboto, &amp;quot;Noto Sans&amp;quot;, Ubuntu, Cantarell, &amp;quot;Helvetica Neue&amp;quot;, Oxygen, &amp;quot;Open Sans&amp;quot;, sans-serif; font-size: 16px; white-space: pre-wrap; background-color: rgb(239, 246, 255);&quot;&gt;&lt;br&gt;(&lt;br&gt;);&lt;br&gt;&lt;br&gt;(&lt;br&gt;);&lt;/span&gt;" style="text;html=1;align=left;verticalAlign=middle;resizable=0;points=[];autosize=1;strokeColor=none;fillColor=none;" vertex="1" parent="1">
          <mxGeometry x="-250" y="250" width="30" height="130" as="geometry" />
        </mxCell>
        <mxCell id="6YvLLzjcVaXfIcfit6wH-2" value="users " style="swimlane;fontStyle=0;childLayout=stackLayout;horizontal=1;startSize=26;fillColor=none;horizontalStack=0;resizeParent=1;resizeParentMax=0;resizeLast=0;collapsible=1;marginBottom=0;whiteSpace=wrap;fontColor=default;labelBackgroundColor=none;html=1;" vertex="1" parent="1">
          <mxGeometry x="330" y="-1430" width="470" height="234" as="geometry" />
        </mxCell>
        <mxCell id="6YvLLzjcVaXfIcfit6wH-3" value="&lt;span style=&quot;color: rgb(38, 38, 38); font-size: 16px; white-space-collapse: preserve;&quot;&gt;user_id SERIAL PRIMARY KEY&lt;/span&gt;" style="text;align=left;verticalAlign=top;spacingLeft=4;spacingRight=4;overflow=hidden;rotatable=0;points=[[0,0.5],[1,0.5]];portConstraint=eastwest;whiteSpace=wrap;html=1;imageAspect=1;" vertex="1" parent="6YvLLzjcVaXfIcfit6wH-2">
          <mxGeometry y="26" width="470" height="26" as="geometry" />
        </mxCell>
        <mxCell id="6YvLLzjcVaXfIcfit6wH-4" value="&lt;span style=&quot;color: rgb(38, 38, 38); font-size: 16px; white-space-collapse: preserve;&quot;&gt;&lt;font face=&quot;Helvetica&quot;&gt;username VARCHAR(50) NOT NULL UNIQUE&lt;/font&gt;&lt;/span&gt;" style="text;strokeColor=none;fillColor=none;align=left;verticalAlign=top;spacingLeft=4;spacingRight=4;overflow=hidden;rotatable=0;points=[[0,0.5],[1,0.5]];portConstraint=eastwest;whiteSpace=wrap;html=1;labelBackgroundColor=none;" vertex="1" parent="6YvLLzjcVaXfIcfit6wH-2">
          <mxGeometry y="52" width="470" height="26" as="geometry" />
        </mxCell>
        <mxCell id="6YvLLzjcVaXfIcfit6wH-5" value="&lt;span style=&quot;color: rgb(38, 38, 38); font-size: 16px; white-space-collapse: preserve;&quot;&gt;&lt;font face=&quot;Helvetica&quot;&gt;email VARCHAR(100) NOT NULL UNIQUE,&lt;/font&gt;&lt;/span&gt;" style="text;strokeColor=none;fillColor=none;align=left;verticalAlign=top;spacingLeft=4;spacingRight=4;overflow=hidden;rotatable=0;points=[[0,0.5],[1,0.5]];portConstraint=eastwest;whiteSpace=wrap;html=1;labelBackgroundColor=none;" vertex="1" parent="6YvLLzjcVaXfIcfit6wH-2">
          <mxGeometry y="78" width="470" height="26" as="geometry" />
        </mxCell>
        <mxCell id="6YvLLzjcVaXfIcfit6wH-6" value="&lt;span style=&quot;color: rgb(38, 38, 38); font-size: 16px; white-space-collapse: preserve;&quot;&gt;&lt;font face=&quot;Helvetica&quot;&gt;password_hash VARCHAR(255) NOT NULL&lt;/font&gt;&lt;/span&gt;" style="text;strokeColor=none;fillColor=none;align=left;verticalAlign=top;spacingLeft=4;spacingRight=4;overflow=hidden;rotatable=0;points=[[0,0.5],[1,0.5]];portConstraint=eastwest;whiteSpace=wrap;html=1;labelBackgroundColor=none;" vertex="1" parent="6YvLLzjcVaXfIcfit6wH-2">
          <mxGeometry y="104" width="470" height="26" as="geometry" />
        </mxCell>
        <mxCell id="6YvLLzjcVaXfIcfit6wH-7" value="&lt;span style=&quot;color: rgb(38, 38, 38); font-size: 16px; white-space-collapse: preserve;&quot;&gt;&lt;font face=&quot;Helvetica&quot;&gt;full_name VARCHAR(100),&lt;/font&gt;&lt;/span&gt;" style="text;strokeColor=none;fillColor=none;align=left;verticalAlign=top;spacingLeft=4;spacingRight=4;overflow=hidden;rotatable=0;points=[[0,0.5],[1,0.5]];portConstraint=eastwest;whiteSpace=wrap;html=1;labelBackgroundColor=none;" vertex="1" parent="6YvLLzjcVaXfIcfit6wH-2">
          <mxGeometry y="130" width="470" height="26" as="geometry" />
        </mxCell>
        <mxCell id="6YvLLzjcVaXfIcfit6wH-9" value="&lt;span style=&quot;color: rgb(38, 38, 38); font-size: 16px; white-space-collapse: preserve;&quot;&gt;&lt;font face=&quot;Helvetica&quot;&gt;phone VARCHAR(20),&lt;/font&gt;&lt;/span&gt;" style="text;strokeColor=none;fillColor=none;align=left;verticalAlign=top;spacingLeft=4;spacingRight=4;overflow=hidden;rotatable=0;points=[[0,0.5],[1,0.5]];portConstraint=eastwest;whiteSpace=wrap;html=1;labelBackgroundColor=none;" vertex="1" parent="6YvLLzjcVaXfIcfit6wH-2">
          <mxGeometry y="156" width="470" height="26" as="geometry" />
        </mxCell>
        <mxCell id="6YvLLzjcVaXfIcfit6wH-10" value="&lt;span style=&quot;color: rgb(38, 38, 38); font-size: 16px; white-space-collapse: preserve;&quot;&gt;&lt;font face=&quot;Helvetica&quot;&gt;created_at TIMESTAMP DEFAULT CURRENT_TIMESTAMP&lt;/font&gt;&lt;/span&gt;" style="text;strokeColor=none;fillColor=none;align=left;verticalAlign=top;spacingLeft=4;spacingRight=4;overflow=hidden;rotatable=0;points=[[0,0.5],[1,0.5]];portConstraint=eastwest;whiteSpace=wrap;html=1;labelBackgroundColor=none;" vertex="1" parent="6YvLLzjcVaXfIcfit6wH-2">
          <mxGeometry y="182" width="470" height="26" as="geometry" />
        </mxCell>
        <mxCell id="6YvLLzjcVaXfIcfit6wH-11" value="&lt;span style=&quot;color: rgb(38, 38, 38); font-size: 16px; white-space-collapse: preserve;&quot;&gt;&lt;font face=&quot;Helvetica&quot;&gt;updated_at TIMESTAMP DEFAULT CURRENT_TIMESTAMP&lt;/font&gt;&lt;/span&gt;" style="text;strokeColor=none;fillColor=none;align=left;verticalAlign=top;spacingLeft=4;spacingRight=4;overflow=hidden;rotatable=0;points=[[0,0.5],[1,0.5]];portConstraint=eastwest;whiteSpace=wrap;html=1;labelBackgroundColor=none;" vertex="1" parent="6YvLLzjcVaXfIcfit6wH-2">
          <mxGeometry y="208" width="470" height="26" as="geometry" />
        </mxCell>
        <mxCell id="6YvLLzjcVaXfIcfit6wH-12" value="&lt;span style=&quot;color: rgb(38, 38, 38); font-family: quote-cjk-patch, Inter, system-ui, -apple-system, BlinkMacSystemFont, &amp;quot;Segoe UI&amp;quot;, Roboto, &amp;quot;Noto Sans&amp;quot;, Ubuntu, Cantarell, &amp;quot;Helvetica Neue&amp;quot;, Oxygen, &amp;quot;Open Sans&amp;quot;, sans-serif; font-size: 16px; text-align: left; white-space-collapse: preserve;&quot;&gt;addresses &lt;/span&gt;" style="swimlane;fontStyle=0;childLayout=stackLayout;horizontal=1;startSize=26;fillColor=none;horizontalStack=0;resizeParent=1;resizeParentMax=0;resizeLast=0;collapsible=1;marginBottom=0;whiteSpace=wrap;fontColor=default;labelBackgroundColor=none;html=1;" vertex="1" parent="1">
          <mxGeometry x="330" y="-1142" width="470" height="234" as="geometry" />
        </mxCell>
        <mxCell id="6YvLLzjcVaXfIcfit6wH-13" value="&lt;span style=&quot;color: rgb(38, 38, 38); font-family: quote-cjk-patch, Inter, system-ui, -apple-system, BlinkMacSystemFont, &amp;quot;Segoe UI&amp;quot;, Roboto, &amp;quot;Noto Sans&amp;quot;, Ubuntu, Cantarell, &amp;quot;Helvetica Neue&amp;quot;, Oxygen, &amp;quot;Open Sans&amp;quot;, sans-serif; font-size: 16px; white-space-collapse: preserve;&quot;&gt;address_id SERIAL PRIMARY KEY,&lt;/span&gt;" style="text;align=left;verticalAlign=top;spacingLeft=4;spacingRight=4;overflow=hidden;rotatable=0;points=[[0,0.5],[1,0.5]];portConstraint=eastwest;whiteSpace=wrap;html=1;imageAspect=1;labelBackgroundColor=none;" vertex="1" parent="6YvLLzjcVaXfIcfit6wH-12">
          <mxGeometry y="26" width="470" height="26" as="geometry" />
        </mxCell>
        <mxCell id="6YvLLzjcVaXfIcfit6wH-14" value="&lt;span style=&quot;color: rgb(38, 38, 38); font-family: quote-cjk-patch, Inter, system-ui, -apple-system, BlinkMacSystemFont, &amp;quot;Segoe UI&amp;quot;, Roboto, &amp;quot;Noto Sans&amp;quot;, Ubuntu, Cantarell, &amp;quot;Helvetica Neue&amp;quot;, Oxygen, &amp;quot;Open Sans&amp;quot;, sans-serif; font-size: 16px; white-space-collapse: preserve;&quot;&gt;user_id INTEGER REFERENCES users(user_id),&lt;/span&gt;" style="text;strokeColor=none;fillColor=none;align=left;verticalAlign=top;spacingLeft=4;spacingRight=4;overflow=hidden;rotatable=0;points=[[0,0.5],[1,0.5]];portConstraint=eastwest;whiteSpace=wrap;html=1;labelBackgroundColor=none;" vertex="1" parent="6YvLLzjcVaXfIcfit6wH-12">
          <mxGeometry y="52" width="470" height="26" as="geometry" />
        </mxCell>
        <mxCell id="6YvLLzjcVaXfIcfit6wH-15" value="&lt;span style=&quot;color: rgb(38, 38, 38); font-family: quote-cjk-patch, Inter, system-ui, -apple-system, BlinkMacSystemFont, &amp;quot;Segoe UI&amp;quot;, Roboto, &amp;quot;Noto Sans&amp;quot;, Ubuntu, Cantarell, &amp;quot;Helvetica Neue&amp;quot;, Oxygen, &amp;quot;Open Sans&amp;quot;, sans-serif; font-size: 16px; white-space-collapse: preserve;&quot;&gt;country VARCHAR(50) NOT NULL,&lt;/span&gt;" style="text;strokeColor=none;fillColor=none;align=left;verticalAlign=top;spacingLeft=4;spacingRight=4;overflow=hidden;rotatable=0;points=[[0,0.5],[1,0.5]];portConstraint=eastwest;whiteSpace=wrap;html=1;labelBackgroundColor=none;" vertex="1" parent="6YvLLzjcVaXfIcfit6wH-12">
          <mxGeometry y="78" width="470" height="26" as="geometry" />
        </mxCell>
        <mxCell id="6YvLLzjcVaXfIcfit6wH-16" value="&lt;span style=&quot;color: rgb(38, 38, 38); font-family: quote-cjk-patch, Inter, system-ui, -apple-system, BlinkMacSystemFont, &amp;quot;Segoe UI&amp;quot;, Roboto, &amp;quot;Noto Sans&amp;quot;, Ubuntu, Cantarell, &amp;quot;Helvetica Neue&amp;quot;, Oxygen, &amp;quot;Open Sans&amp;quot;, sans-serif; font-size: 16px; white-space-collapse: preserve;&quot;&gt;city VARCHAR(50) NOT NULL,&lt;/span&gt;" style="text;strokeColor=none;fillColor=none;align=left;verticalAlign=top;spacingLeft=4;spacingRight=4;overflow=hidden;rotatable=0;points=[[0,0.5],[1,0.5]];portConstraint=eastwest;whiteSpace=wrap;html=1;labelBackgroundColor=none;" vertex="1" parent="6YvLLzjcVaXfIcfit6wH-12">
          <mxGeometry y="104" width="470" height="26" as="geometry" />
        </mxCell>
        <mxCell id="6YvLLzjcVaXfIcfit6wH-17" value="&lt;span style=&quot;color: rgb(38, 38, 38); font-family: quote-cjk-patch, Inter, system-ui, -apple-system, BlinkMacSystemFont, &amp;quot;Segoe UI&amp;quot;, Roboto, &amp;quot;Noto Sans&amp;quot;, Ubuntu, Cantarell, &amp;quot;Helvetica Neue&amp;quot;, Oxygen, &amp;quot;Open Sans&amp;quot;, sans-serif; font-size: 16px; white-space-collapse: preserve;&quot;&gt;street VARCHAR(100) NOT NULL,&lt;/span&gt;" style="text;strokeColor=none;fillColor=none;align=left;verticalAlign=top;spacingLeft=4;spacingRight=4;overflow=hidden;rotatable=0;points=[[0,0.5],[1,0.5]];portConstraint=eastwest;whiteSpace=wrap;html=1;labelBackgroundColor=none;" vertex="1" parent="6YvLLzjcVaXfIcfit6wH-12">
          <mxGeometry y="130" width="470" height="26" as="geometry" />
        </mxCell>
        <mxCell id="6YvLLzjcVaXfIcfit6wH-18" value="&lt;span style=&quot;color: rgb(38, 38, 38); font-family: quote-cjk-patch, Inter, system-ui, -apple-system, BlinkMacSystemFont, &amp;quot;Segoe UI&amp;quot;, Roboto, &amp;quot;Noto Sans&amp;quot;, Ubuntu, Cantarell, &amp;quot;Helvetica Neue&amp;quot;, Oxygen, &amp;quot;Open Sans&amp;quot;, sans-serif; font-size: 16px; white-space-collapse: preserve;&quot;&gt;building VARCHAR(20) NOT NULL,&lt;/span&gt;" style="text;strokeColor=none;fillColor=none;align=left;verticalAlign=top;spacingLeft=4;spacingRight=4;overflow=hidden;rotatable=0;points=[[0,0.5],[1,0.5]];portConstraint=eastwest;whiteSpace=wrap;html=1;labelBackgroundColor=none;" vertex="1" parent="6YvLLzjcVaXfIcfit6wH-12">
          <mxGeometry y="156" width="470" height="26" as="geometry" />
        </mxCell>
        <mxCell id="6YvLLzjcVaXfIcfit6wH-19" value="&lt;span style=&quot;color: rgb(38, 38, 38); font-family: quote-cjk-patch, Inter, system-ui, -apple-system, BlinkMacSystemFont, &amp;quot;Segoe UI&amp;quot;, Roboto, &amp;quot;Noto Sans&amp;quot;, Ubuntu, Cantarell, &amp;quot;Helvetica Neue&amp;quot;, Oxygen, &amp;quot;Open Sans&amp;quot;, sans-serif; font-size: 16px; white-space-collapse: preserve;&quot;&gt;apartment VARCHAR(20),&lt;/span&gt;" style="text;strokeColor=none;fillColor=none;align=left;verticalAlign=top;spacingLeft=4;spacingRight=4;overflow=hidden;rotatable=0;points=[[0,0.5],[1,0.5]];portConstraint=eastwest;whiteSpace=wrap;html=1;labelBackgroundColor=none;" vertex="1" parent="6YvLLzjcVaXfIcfit6wH-12">
          <mxGeometry y="182" width="470" height="26" as="geometry" />
        </mxCell>
        <mxCell id="6YvLLzjcVaXfIcfit6wH-21" value="&lt;span style=&quot;color: rgb(38, 38, 38); font-family: quote-cjk-patch, Inter, system-ui, -apple-system, BlinkMacSystemFont, &amp;quot;Segoe UI&amp;quot;, Roboto, &amp;quot;Noto Sans&amp;quot;, Ubuntu, Cantarell, &amp;quot;Helvetica Neue&amp;quot;, Oxygen, &amp;quot;Open Sans&amp;quot;, sans-serif; font-size: 16px; white-space-collapse: preserve;&quot;&gt;postal_code VARCHAR(20),&lt;/span&gt;" style="text;strokeColor=none;fillColor=none;align=left;verticalAlign=top;spacingLeft=4;spacingRight=4;overflow=hidden;rotatable=0;points=[[0,0.5],[1,0.5]];portConstraint=eastwest;whiteSpace=wrap;html=1;labelBackgroundColor=none;" vertex="1" parent="6YvLLzjcVaXfIcfit6wH-12">
          <mxGeometry y="208" width="470" height="26" as="geometry" />
        </mxCell>
        <mxCell id="6YvLLzjcVaXfIcfit6wH-22" value="&lt;span style=&quot;color: rgb(38, 38, 38); font-family: quote-cjk-patch, Inter, system-ui, -apple-system, BlinkMacSystemFont, &amp;quot;Segoe UI&amp;quot;, Roboto, &amp;quot;Noto Sans&amp;quot;, Ubuntu, Cantarell, &amp;quot;Helvetica Neue&amp;quot;, Oxygen, &amp;quot;Open Sans&amp;quot;, sans-serif; font-size: 16px; text-align: left; white-space-collapse: preserve;&quot;&gt;categories &lt;/span&gt;" style="swimlane;fontStyle=0;childLayout=stackLayout;horizontal=1;startSize=26;fillColor=none;horizontalStack=0;resizeParent=1;resizeParentMax=0;resizeLast=0;collapsible=1;marginBottom=0;whiteSpace=wrap;fontColor=default;labelBackgroundColor=none;html=1;" vertex="1" parent="1">
          <mxGeometry x="330" y="-860" width="470" height="130" as="geometry" />
        </mxCell>
        <mxCell id="6YvLLzjcVaXfIcfit6wH-23" value="&lt;span style=&quot;color: rgb(38, 38, 38); font-family: quote-cjk-patch, Inter, system-ui, -apple-system, BlinkMacSystemFont, &amp;quot;Segoe UI&amp;quot;, Roboto, &amp;quot;Noto Sans&amp;quot;, Ubuntu, Cantarell, &amp;quot;Helvetica Neue&amp;quot;, Oxygen, &amp;quot;Open Sans&amp;quot;, sans-serif; font-size: 16px; white-space-collapse: preserve;&quot;&gt;category_id SERIAL PRIMARY KEY,&lt;/span&gt;" style="text;align=left;verticalAlign=top;spacingLeft=4;spacingRight=4;overflow=hidden;rotatable=0;points=[[0,0.5],[1,0.5]];portConstraint=eastwest;whiteSpace=wrap;html=1;imageAspect=1;labelBackgroundColor=none;" vertex="1" parent="6YvLLzjcVaXfIcfit6wH-22">
          <mxGeometry y="26" width="470" height="26" as="geometry" />
        </mxCell>
        <mxCell id="6YvLLzjcVaXfIcfit6wH-24" value="&lt;span style=&quot;color: rgb(38, 38, 38); font-family: quote-cjk-patch, Inter, system-ui, -apple-system, BlinkMacSystemFont, &amp;quot;Segoe UI&amp;quot;, Roboto, &amp;quot;Noto Sans&amp;quot;, Ubuntu, Cantarell, &amp;quot;Helvetica Neue&amp;quot;, Oxygen, &amp;quot;Open Sans&amp;quot;, sans-serif; font-size: 16px; white-space-collapse: preserve;&quot;&gt;name VARCHAR(50) NOT NULL,&lt;/span&gt;" style="text;strokeColor=none;fillColor=none;align=left;verticalAlign=top;spacingLeft=4;spacingRight=4;overflow=hidden;rotatable=0;points=[[0,0.5],[1,0.5]];portConstraint=eastwest;whiteSpace=wrap;html=1;labelBackgroundColor=none;" vertex="1" parent="6YvLLzjcVaXfIcfit6wH-22">
          <mxGeometry y="52" width="470" height="26" as="geometry" />
        </mxCell>
        <mxCell id="6YvLLzjcVaXfIcfit6wH-25" value="&lt;span style=&quot;color: rgb(38, 38, 38); font-family: quote-cjk-patch, Inter, system-ui, -apple-system, BlinkMacSystemFont, &amp;quot;Segoe UI&amp;quot;, Roboto, &amp;quot;Noto Sans&amp;quot;, Ubuntu, Cantarell, &amp;quot;Helvetica Neue&amp;quot;, Oxygen, &amp;quot;Open Sans&amp;quot;, sans-serif; font-size: 16px; white-space-collapse: preserve;&quot;&gt;description TEXT,&lt;/span&gt;" style="text;strokeColor=none;fillColor=none;align=left;verticalAlign=top;spacingLeft=4;spacingRight=4;overflow=hidden;rotatable=0;points=[[0,0.5],[1,0.5]];portConstraint=eastwest;whiteSpace=wrap;html=1;labelBackgroundColor=none;" vertex="1" parent="6YvLLzjcVaXfIcfit6wH-22">
          <mxGeometry y="78" width="470" height="26" as="geometry" />
        </mxCell>
        <mxCell id="6YvLLzjcVaXfIcfit6wH-26" value="&lt;span style=&quot;color: rgb(38, 38, 38); font-family: quote-cjk-patch, Inter, system-ui, -apple-system, BlinkMacSystemFont, &amp;quot;Segoe UI&amp;quot;, Roboto, &amp;quot;Noto Sans&amp;quot;, Ubuntu, Cantarell, &amp;quot;Helvetica Neue&amp;quot;, Oxygen, &amp;quot;Open Sans&amp;quot;, sans-serif; font-size: 16px; white-space-collapse: preserve;&quot;&gt;parent_category_id INTEGER REFERENCES categories(category_id)&lt;/span&gt;" style="text;strokeColor=none;fillColor=none;align=left;verticalAlign=top;spacingLeft=4;spacingRight=4;overflow=hidden;rotatable=0;points=[[0,0.5],[1,0.5]];portConstraint=eastwest;whiteSpace=wrap;html=1;labelBackgroundColor=none;" vertex="1" parent="6YvLLzjcVaXfIcfit6wH-22">
          <mxGeometry y="104" width="470" height="26" as="geometry" />
        </mxCell>
        <mxCell id="6YvLLzjcVaXfIcfit6wH-31" value="&lt;span style=&quot;color: rgb(38, 38, 38); font-family: quote-cjk-patch, Inter, system-ui, -apple-system, BlinkMacSystemFont, &amp;quot;Segoe UI&amp;quot;, Roboto, &amp;quot;Noto Sans&amp;quot;, Ubuntu, Cantarell, &amp;quot;Helvetica Neue&amp;quot;, Oxygen, &amp;quot;Open Sans&amp;quot;, sans-serif; font-size: 16px; text-align: left; white-space-collapse: preserve;&quot;&gt;manufacturers&lt;/span&gt;" style="swimlane;fontStyle=0;childLayout=stackLayout;horizontal=1;startSize=26;fillColor=none;horizontalStack=0;resizeParent=1;resizeParentMax=0;resizeLast=0;collapsible=1;marginBottom=0;whiteSpace=wrap;fontColor=default;labelBackgroundColor=none;html=1;" vertex="1" parent="1">
          <mxGeometry x="330" y="-690" width="470" height="208" as="geometry" />
        </mxCell>
        <mxCell id="6YvLLzjcVaXfIcfit6wH-32" value="&lt;span style=&quot;color: rgb(38, 38, 38); font-family: quote-cjk-patch, Inter, system-ui, -apple-system, BlinkMacSystemFont, &amp;quot;Segoe UI&amp;quot;, Roboto, &amp;quot;Noto Sans&amp;quot;, Ubuntu, Cantarell, &amp;quot;Helvetica Neue&amp;quot;, Oxygen, &amp;quot;Open Sans&amp;quot;, sans-serif; font-size: 16px; white-space-collapse: preserve;&quot;&gt;manufacturer_id SERIAL PRIMARY KEY,&lt;/span&gt;" style="text;align=left;verticalAlign=top;spacingLeft=4;spacingRight=4;overflow=hidden;rotatable=0;points=[[0,0.5],[1,0.5]];portConstraint=eastwest;whiteSpace=wrap;html=1;imageAspect=1;labelBackgroundColor=none;" vertex="1" parent="6YvLLzjcVaXfIcfit6wH-31">
          <mxGeometry y="26" width="470" height="26" as="geometry" />
        </mxCell>
        <mxCell id="6YvLLzjcVaXfIcfit6wH-33" value="&lt;span style=&quot;color: rgb(38, 38, 38); font-family: quote-cjk-patch, Inter, system-ui, -apple-system, BlinkMacSystemFont, &amp;quot;Segoe UI&amp;quot;, Roboto, &amp;quot;Noto Sans&amp;quot;, Ubuntu, Cantarell, &amp;quot;Helvetica Neue&amp;quot;, Oxygen, &amp;quot;Open Sans&amp;quot;, sans-serif; font-size: 16px; white-space-collapse: preserve;&quot;&gt;name VARCHAR(100) NOT NULL,&lt;/span&gt;" style="text;strokeColor=none;fillColor=none;align=left;verticalAlign=top;spacingLeft=4;spacingRight=4;overflow=hidden;rotatable=0;points=[[0,0.5],[1,0.5]];portConstraint=eastwest;whiteSpace=wrap;html=1;labelBackgroundColor=none;" vertex="1" parent="6YvLLzjcVaXfIcfit6wH-31">
          <mxGeometry y="52" width="470" height="26" as="geometry" />
        </mxCell>
        <mxCell id="6YvLLzjcVaXfIcfit6wH-34" value="&lt;span style=&quot;color: rgb(38, 38, 38); font-family: quote-cjk-patch, Inter, system-ui, -apple-system, BlinkMacSystemFont, &amp;quot;Segoe UI&amp;quot;, Roboto, &amp;quot;Noto Sans&amp;quot;, Ubuntu, Cantarell, &amp;quot;Helvetica Neue&amp;quot;, Oxygen, &amp;quot;Open Sans&amp;quot;, sans-serif; font-size: 16px; white-space-collapse: preserve;&quot;&gt;country VARCHAR(50),&lt;/span&gt;" style="text;strokeColor=none;fillColor=none;align=left;verticalAlign=top;spacingLeft=4;spacingRight=4;overflow=hidden;rotatable=0;points=[[0,0.5],[1,0.5]];portConstraint=eastwest;whiteSpace=wrap;html=1;labelBackgroundColor=none;" vertex="1" parent="6YvLLzjcVaXfIcfit6wH-31">
          <mxGeometry y="78" width="470" height="26" as="geometry" />
        </mxCell>
        <mxCell id="6YvLLzjcVaXfIcfit6wH-35" value="&lt;span style=&quot;color: rgb(38, 38, 38); font-family: quote-cjk-patch, Inter, system-ui, -apple-system, BlinkMacSystemFont, &amp;quot;Segoe UI&amp;quot;, Roboto, &amp;quot;Noto Sans&amp;quot;, Ubuntu, Cantarell, &amp;quot;Helvetica Neue&amp;quot;, Oxygen, &amp;quot;Open Sans&amp;quot;, sans-serif; font-size: 16px; white-space-collapse: preserve;&quot;&gt;website VARCHAR(255),&lt;/span&gt;" style="text;strokeColor=none;fillColor=none;align=left;verticalAlign=top;spacingLeft=4;spacingRight=4;overflow=hidden;rotatable=0;points=[[0,0.5],[1,0.5]];portConstraint=eastwest;whiteSpace=wrap;html=1;labelBackgroundColor=none;" vertex="1" parent="6YvLLzjcVaXfIcfit6wH-31">
          <mxGeometry y="104" width="470" height="26" as="geometry" />
        </mxCell>
        <mxCell id="6YvLLzjcVaXfIcfit6wH-36" value="&lt;span style=&quot;color: rgb(38, 38, 38); font-family: quote-cjk-patch, Inter, system-ui, -apple-system, BlinkMacSystemFont, &amp;quot;Segoe UI&amp;quot;, Roboto, &amp;quot;Noto Sans&amp;quot;, Ubuntu, Cantarell, &amp;quot;Helvetica Neue&amp;quot;, Oxygen, &amp;quot;Open Sans&amp;quot;, sans-serif; font-size: 16px; white-space-collapse: preserve;&quot;&gt;description TEXT&lt;/span&gt;" style="text;strokeColor=none;fillColor=none;align=left;verticalAlign=top;spacingLeft=4;spacingRight=4;overflow=hidden;rotatable=0;points=[[0,0.5],[1,0.5]];portConstraint=eastwest;whiteSpace=wrap;html=1;labelBackgroundColor=none;" vertex="1" parent="6YvLLzjcVaXfIcfit6wH-31">
          <mxGeometry y="130" width="470" height="26" as="geometry" />
        </mxCell>
        <mxCell id="6YvLLzjcVaXfIcfit6wH-37" value="&lt;span style=&quot;color: rgb(38, 38, 38); font-family: quote-cjk-patch, Inter, system-ui, -apple-system, BlinkMacSystemFont, &amp;quot;Segoe UI&amp;quot;, Roboto, &amp;quot;Noto Sans&amp;quot;, Ubuntu, Cantarell, &amp;quot;Helvetica Neue&amp;quot;, Oxygen, &amp;quot;Open Sans&amp;quot;, sans-serif; font-size: 16px; white-space-collapse: preserve;&quot;&gt;building VARCHAR(20) NOT NULL,&lt;/span&gt;" style="text;strokeColor=none;fillColor=none;align=left;verticalAlign=top;spacingLeft=4;spacingRight=4;overflow=hidden;rotatable=0;points=[[0,0.5],[1,0.5]];portConstraint=eastwest;whiteSpace=wrap;html=1;labelBackgroundColor=none;" vertex="1" parent="6YvLLzjcVaXfIcfit6wH-31">
          <mxGeometry y="156" width="470" height="26" as="geometry" />
        </mxCell>
        <mxCell id="6YvLLzjcVaXfIcfit6wH-39" value="&lt;span style=&quot;color: rgb(38, 38, 38); font-family: quote-cjk-patch, Inter, system-ui, -apple-system, BlinkMacSystemFont, &amp;quot;Segoe UI&amp;quot;, Roboto, &amp;quot;Noto Sans&amp;quot;, Ubuntu, Cantarell, &amp;quot;Helvetica Neue&amp;quot;, Oxygen, &amp;quot;Open Sans&amp;quot;, sans-serif; font-size: 16px; white-space-collapse: preserve;&quot;&gt;postal_code VARCHAR(20),&lt;/span&gt;" style="text;strokeColor=none;fillColor=none;align=left;verticalAlign=top;spacingLeft=4;spacingRight=4;overflow=hidden;rotatable=0;points=[[0,0.5],[1,0.5]];portConstraint=eastwest;whiteSpace=wrap;html=1;labelBackgroundColor=none;" vertex="1" parent="6YvLLzjcVaXfIcfit6wH-31">
          <mxGeometry y="182" width="470" height="26" as="geometry" />
        </mxCell>
        <mxCell id="6YvLLzjcVaXfIcfit6wH-40" value="&lt;span style=&quot;color: rgb(38, 38, 38); font-family: quote-cjk-patch, Inter, system-ui, -apple-system, BlinkMacSystemFont, &amp;quot;Segoe UI&amp;quot;, Roboto, &amp;quot;Noto Sans&amp;quot;, Ubuntu, Cantarell, &amp;quot;Helvetica Neue&amp;quot;, Oxygen, &amp;quot;Open Sans&amp;quot;, sans-serif; font-size: 16px; text-align: left; white-space-collapse: preserve;&quot;&gt;products&lt;/span&gt;" style="swimlane;fontStyle=0;childLayout=stackLayout;horizontal=1;startSize=26;fillColor=none;horizontalStack=0;resizeParent=1;resizeParentMax=0;resizeLast=0;collapsible=1;marginBottom=0;whiteSpace=wrap;fontColor=default;labelBackgroundColor=none;html=1;" vertex="1" parent="1">
          <mxGeometry x="330" y="-440" width="470" height="260" as="geometry" />
        </mxCell>
        <mxCell id="6YvLLzjcVaXfIcfit6wH-41" value="&lt;span style=&quot;color: rgb(38, 38, 38); font-family: quote-cjk-patch, Inter, system-ui, -apple-system, BlinkMacSystemFont, &amp;quot;Segoe UI&amp;quot;, Roboto, &amp;quot;Noto Sans&amp;quot;, Ubuntu, Cantarell, &amp;quot;Helvetica Neue&amp;quot;, Oxygen, &amp;quot;Open Sans&amp;quot;, sans-serif; font-size: 16px; white-space-collapse: preserve;&quot;&gt;product_id SERIAL PRIMARY KEY,&lt;/span&gt;" style="text;align=left;verticalAlign=top;spacingLeft=4;spacingRight=4;overflow=hidden;rotatable=0;points=[[0,0.5],[1,0.5]];portConstraint=eastwest;whiteSpace=wrap;html=1;imageAspect=1;labelBackgroundColor=none;" vertex="1" parent="6YvLLzjcVaXfIcfit6wH-40">
          <mxGeometry y="26" width="470" height="26" as="geometry" />
        </mxCell>
        <mxCell id="6YvLLzjcVaXfIcfit6wH-42" value="&lt;span style=&quot;color: rgb(38, 38, 38); font-family: quote-cjk-patch, Inter, system-ui, -apple-system, BlinkMacSystemFont, &amp;quot;Segoe UI&amp;quot;, Roboto, &amp;quot;Noto Sans&amp;quot;, Ubuntu, Cantarell, &amp;quot;Helvetica Neue&amp;quot;, Oxygen, &amp;quot;Open Sans&amp;quot;, sans-serif; font-size: 16px; white-space-collapse: preserve;&quot;&gt;name VARCHAR(100) NOT NULL,&lt;/span&gt;" style="text;strokeColor=none;fillColor=none;align=left;verticalAlign=top;spacingLeft=4;spacingRight=4;overflow=hidden;rotatable=0;points=[[0,0.5],[1,0.5]];portConstraint=eastwest;whiteSpace=wrap;html=1;labelBackgroundColor=none;" vertex="1" parent="6YvLLzjcVaXfIcfit6wH-40">
          <mxGeometry y="52" width="470" height="26" as="geometry" />
        </mxCell>
        <mxCell id="6YvLLzjcVaXfIcfit6wH-43" value="&lt;span style=&quot;color: rgb(38, 38, 38); font-family: quote-cjk-patch, Inter, system-ui, -apple-system, BlinkMacSystemFont, &amp;quot;Segoe UI&amp;quot;, Roboto, &amp;quot;Noto Sans&amp;quot;, Ubuntu, Cantarell, &amp;quot;Helvetica Neue&amp;quot;, Oxygen, &amp;quot;Open Sans&amp;quot;, sans-serif; font-size: 16px; white-space-collapse: preserve;&quot;&gt;description TEXT,&lt;/span&gt;" style="text;strokeColor=none;fillColor=none;align=left;verticalAlign=top;spacingLeft=4;spacingRight=4;overflow=hidden;rotatable=0;points=[[0,0.5],[1,0.5]];portConstraint=eastwest;whiteSpace=wrap;html=1;labelBackgroundColor=none;" vertex="1" parent="6YvLLzjcVaXfIcfit6wH-40">
          <mxGeometry y="78" width="470" height="26" as="geometry" />
        </mxCell>
        <mxCell id="6YvLLzjcVaXfIcfit6wH-44" value="&lt;span style=&quot;color: rgb(38, 38, 38); font-family: quote-cjk-patch, Inter, system-ui, -apple-system, BlinkMacSystemFont, &amp;quot;Segoe UI&amp;quot;, Roboto, &amp;quot;Noto Sans&amp;quot;, Ubuntu, Cantarell, &amp;quot;Helvetica Neue&amp;quot;, Oxygen, &amp;quot;Open Sans&amp;quot;, sans-serif; font-size: 16px; white-space-collapse: preserve;&quot;&gt;price DECIMAL(10, 2) NOT NULL,&lt;/span&gt;" style="text;strokeColor=none;fillColor=none;align=left;verticalAlign=top;spacingLeft=4;spacingRight=4;overflow=hidden;rotatable=0;points=[[0,0.5],[1,0.5]];portConstraint=eastwest;whiteSpace=wrap;html=1;labelBackgroundColor=none;" vertex="1" parent="6YvLLzjcVaXfIcfit6wH-40">
          <mxGeometry y="104" width="470" height="26" as="geometry" />
        </mxCell>
        <mxCell id="6YvLLzjcVaXfIcfit6wH-45" value="&lt;span style=&quot;color: rgb(38, 38, 38); font-family: quote-cjk-patch, Inter, system-ui, -apple-system, BlinkMacSystemFont, &amp;quot;Segoe UI&amp;quot;, Roboto, &amp;quot;Noto Sans&amp;quot;, Ubuntu, Cantarell, &amp;quot;Helvetica Neue&amp;quot;, Oxygen, &amp;quot;Open Sans&amp;quot;, sans-serif; font-size: 16px; white-space-collapse: preserve;&quot;&gt;stock_quantity INTEGER NOT NULL DEFAULT 0,&lt;/span&gt;" style="text;strokeColor=none;fillColor=none;align=left;verticalAlign=top;spacingLeft=4;spacingRight=4;overflow=hidden;rotatable=0;points=[[0,0.5],[1,0.5]];portConstraint=eastwest;whiteSpace=wrap;html=1;labelBackgroundColor=none;" vertex="1" parent="6YvLLzjcVaXfIcfit6wH-40">
          <mxGeometry y="130" width="470" height="26" as="geometry" />
        </mxCell>
        <mxCell id="6YvLLzjcVaXfIcfit6wH-46" value="&lt;span style=&quot;color: rgb(38, 38, 38); font-family: quote-cjk-patch, Inter, system-ui, -apple-system, BlinkMacSystemFont, &amp;quot;Segoe UI&amp;quot;, Roboto, &amp;quot;Noto Sans&amp;quot;, Ubuntu, Cantarell, &amp;quot;Helvetica Neue&amp;quot;, Oxygen, &amp;quot;Open Sans&amp;quot;, sans-serif; font-size: 16px; white-space-collapse: preserve;&quot;&gt;category_id INTEGER REFERENCES categories(category_id),&lt;/span&gt;" style="text;strokeColor=none;fillColor=none;align=left;verticalAlign=top;spacingLeft=4;spacingRight=4;overflow=hidden;rotatable=0;points=[[0,0.5],[1,0.5]];portConstraint=eastwest;whiteSpace=wrap;html=1;labelBackgroundColor=none;" vertex="1" parent="6YvLLzjcVaXfIcfit6wH-40">
          <mxGeometry y="156" width="470" height="26" as="geometry" />
        </mxCell>
        <mxCell id="6YvLLzjcVaXfIcfit6wH-47" value="&lt;span style=&quot;color: rgb(38, 38, 38); font-family: quote-cjk-patch, Inter, system-ui, -apple-system, BlinkMacSystemFont, &amp;quot;Segoe UI&amp;quot;, Roboto, &amp;quot;Noto Sans&amp;quot;, Ubuntu, Cantarell, &amp;quot;Helvetica Neue&amp;quot;, Oxygen, &amp;quot;Open Sans&amp;quot;, sans-serif; font-size: 16px; white-space-collapse: preserve;&quot;&gt;manufacturer_id INTEGER REFERENCES manufacturers(manufacturer_id),&lt;/span&gt;" style="text;strokeColor=none;fillColor=none;align=left;verticalAlign=top;spacingLeft=4;spacingRight=4;overflow=hidden;rotatable=0;points=[[0,0.5],[1,0.5]];portConstraint=eastwest;whiteSpace=wrap;html=1;labelBackgroundColor=none;" vertex="1" parent="6YvLLzjcVaXfIcfit6wH-40">
          <mxGeometry y="182" width="470" height="26" as="geometry" />
        </mxCell>
        <mxCell id="6YvLLzjcVaXfIcfit6wH-48" value="&lt;span style=&quot;color: rgb(38, 38, 38); font-family: quote-cjk-patch, Inter, system-ui, -apple-system, BlinkMacSystemFont, &amp;quot;Segoe UI&amp;quot;, Roboto, &amp;quot;Noto Sans&amp;quot;, Ubuntu, Cantarell, &amp;quot;Helvetica Neue&amp;quot;, Oxygen, &amp;quot;Open Sans&amp;quot;, sans-serif; font-size: 16px; white-space-collapse: preserve;&quot;&gt;created_at TIMESTAMP DEFAULT CURRENT_TIMESTAMP,&lt;/span&gt;" style="text;strokeColor=none;fillColor=none;align=left;verticalAlign=top;spacingLeft=4;spacingRight=4;overflow=hidden;rotatable=0;points=[[0,0.5],[1,0.5]];portConstraint=eastwest;whiteSpace=wrap;html=1;labelBackgroundColor=none;" vertex="1" parent="6YvLLzjcVaXfIcfit6wH-40">
          <mxGeometry y="208" width="470" height="26" as="geometry" />
        </mxCell>
        <mxCell id="6YvLLzjcVaXfIcfit6wH-49" value="&lt;span style=&quot;color: rgb(38, 38, 38); font-family: quote-cjk-patch, Inter, system-ui, -apple-system, BlinkMacSystemFont, &amp;quot;Segoe UI&amp;quot;, Roboto, &amp;quot;Noto Sans&amp;quot;, Ubuntu, Cantarell, &amp;quot;Helvetica Neue&amp;quot;, Oxygen, &amp;quot;Open Sans&amp;quot;, sans-serif; font-size: 16px; white-space-collapse: preserve;&quot;&gt;updated_at TIMESTAMP DEFAULT CURRENT_TIMESTAMP&lt;/span&gt;" style="text;strokeColor=none;fillColor=none;align=left;verticalAlign=top;spacingLeft=4;spacingRight=4;overflow=hidden;rotatable=0;points=[[0,0.5],[1,0.5]];portConstraint=eastwest;whiteSpace=wrap;html=1;labelBackgroundColor=none;" vertex="1" parent="6YvLLzjcVaXfIcfit6wH-40">
          <mxGeometry y="234" width="470" height="26" as="geometry" />
        </mxCell>
        <mxCell id="6YvLLzjcVaXfIcfit6wH-50" value="&lt;span style=&quot;color: rgb(38, 38, 38); font-family: quote-cjk-patch, Inter, system-ui, -apple-system, BlinkMacSystemFont, &amp;quot;Segoe UI&amp;quot;, Roboto, &amp;quot;Noto Sans&amp;quot;, Ubuntu, Cantarell, &amp;quot;Helvetica Neue&amp;quot;, Oxygen, &amp;quot;Open Sans&amp;quot;, sans-serif; font-size: 16px; text-align: left; white-space-collapse: preserve;&quot;&gt;product_specs &lt;/span&gt;" style="swimlane;fontStyle=0;childLayout=stackLayout;horizontal=1;startSize=26;fillColor=none;horizontalStack=0;resizeParent=1;resizeParentMax=0;resizeLast=0;collapsible=1;marginBottom=0;whiteSpace=wrap;fontColor=default;labelBackgroundColor=none;html=1;" vertex="1" parent="1">
          <mxGeometry x="-250" y="-440" width="520" height="208" as="geometry" />
        </mxCell>
        <mxCell id="6YvLLzjcVaXfIcfit6wH-51" value="&lt;span style=&quot;color: rgb(38, 38, 38); font-family: quote-cjk-patch, Inter, system-ui, -apple-system, BlinkMacSystemFont, &amp;quot;Segoe UI&amp;quot;, Roboto, &amp;quot;Noto Sans&amp;quot;, Ubuntu, Cantarell, &amp;quot;Helvetica Neue&amp;quot;, Oxygen, &amp;quot;Open Sans&amp;quot;, sans-serif; font-size: 16px; white-space-collapse: preserve;&quot;&gt;spec_id SERIAL PRIMARY KEY,&lt;/span&gt;" style="text;align=left;verticalAlign=top;spacingLeft=4;spacingRight=4;overflow=hidden;rotatable=0;points=[[0,0.5],[1,0.5]];portConstraint=eastwest;whiteSpace=wrap;html=1;imageAspect=1;labelBackgroundColor=none;" vertex="1" parent="6YvLLzjcVaXfIcfit6wH-50">
          <mxGeometry y="26" width="520" height="26" as="geometry" />
        </mxCell>
        <mxCell id="6YvLLzjcVaXfIcfit6wH-52" value="&lt;span style=&quot;color: rgb(38, 38, 38); font-family: quote-cjk-patch, Inter, system-ui, -apple-system, BlinkMacSystemFont, &amp;quot;Segoe UI&amp;quot;, Roboto, &amp;quot;Noto Sans&amp;quot;, Ubuntu, Cantarell, &amp;quot;Helvetica Neue&amp;quot;, Oxygen, &amp;quot;Open Sans&amp;quot;, sans-serif; font-size: 16px; white-space-collapse: preserve;&quot;&gt;product_id INTEGER UNIQUE REFERENCES products(product_id),&lt;/span&gt;" style="text;strokeColor=none;fillColor=none;align=left;verticalAlign=top;spacingLeft=4;spacingRight=4;overflow=hidden;rotatable=0;points=[[0,0.5],[1,0.5]];portConstraint=eastwest;whiteSpace=wrap;html=1;labelBackgroundColor=none;" vertex="1" parent="6YvLLzjcVaXfIcfit6wH-50">
          <mxGeometry y="52" width="520" height="26" as="geometry" />
        </mxCell>
        <mxCell id="6YvLLzjcVaXfIcfit6wH-53" value="&lt;span style=&quot;color: rgb(38, 38, 38); font-family: quote-cjk-patch, Inter, system-ui, -apple-system, BlinkMacSystemFont, &amp;quot;Segoe UI&amp;quot;, Roboto, &amp;quot;Noto Sans&amp;quot;, Ubuntu, Cantarell, &amp;quot;Helvetica Neue&amp;quot;, Oxygen, &amp;quot;Open Sans&amp;quot;, sans-serif; font-size: 16px; white-space-collapse: preserve;&quot;&gt;weight DECIMAL(10, 2),&lt;/span&gt;" style="text;strokeColor=none;fillColor=none;align=left;verticalAlign=top;spacingLeft=4;spacingRight=4;overflow=hidden;rotatable=0;points=[[0,0.5],[1,0.5]];portConstraint=eastwest;whiteSpace=wrap;html=1;labelBackgroundColor=none;" vertex="1" parent="6YvLLzjcVaXfIcfit6wH-50">
          <mxGeometry y="78" width="520" height="26" as="geometry" />
        </mxCell>
        <mxCell id="6YvLLzjcVaXfIcfit6wH-54" value="&lt;span style=&quot;color: rgb(38, 38, 38); font-family: quote-cjk-patch, Inter, system-ui, -apple-system, BlinkMacSystemFont, &amp;quot;Segoe UI&amp;quot;, Roboto, &amp;quot;Noto Sans&amp;quot;, Ubuntu, Cantarell, &amp;quot;Helvetica Neue&amp;quot;, Oxygen, &amp;quot;Open Sans&amp;quot;, sans-serif; font-size: 16px; white-space-collapse: preserve;&quot;&gt;dimensions VARCHAR(50),&lt;/span&gt;" style="text;strokeColor=none;fillColor=none;align=left;verticalAlign=top;spacingLeft=4;spacingRight=4;overflow=hidden;rotatable=0;points=[[0,0.5],[1,0.5]];portConstraint=eastwest;whiteSpace=wrap;html=1;labelBackgroundColor=none;" vertex="1" parent="6YvLLzjcVaXfIcfit6wH-50">
          <mxGeometry y="104" width="520" height="26" as="geometry" />
        </mxCell>
        <mxCell id="6YvLLzjcVaXfIcfit6wH-55" value="&lt;span style=&quot;color: rgb(38, 38, 38); font-family: quote-cjk-patch, Inter, system-ui, -apple-system, BlinkMacSystemFont, &amp;quot;Segoe UI&amp;quot;, Roboto, &amp;quot;Noto Sans&amp;quot;, Ubuntu, Cantarell, &amp;quot;Helvetica Neue&amp;quot;, Oxygen, &amp;quot;Open Sans&amp;quot;, sans-serif; font-size: 16px; white-space-collapse: preserve;&quot;&gt;color VARCHAR(50),&lt;/span&gt;" style="text;strokeColor=none;fillColor=none;align=left;verticalAlign=top;spacingLeft=4;spacingRight=4;overflow=hidden;rotatable=0;points=[[0,0.5],[1,0.5]];portConstraint=eastwest;whiteSpace=wrap;html=1;labelBackgroundColor=none;" vertex="1" parent="6YvLLzjcVaXfIcfit6wH-50">
          <mxGeometry y="130" width="520" height="26" as="geometry" />
        </mxCell>
        <mxCell id="6YvLLzjcVaXfIcfit6wH-56" value="&lt;span style=&quot;color: rgb(38, 38, 38); font-family: quote-cjk-patch, Inter, system-ui, -apple-system, BlinkMacSystemFont, &amp;quot;Segoe UI&amp;quot;, Roboto, &amp;quot;Noto Sans&amp;quot;, Ubuntu, Cantarell, &amp;quot;Helvetica Neue&amp;quot;, Oxygen, &amp;quot;Open Sans&amp;quot;, sans-serif; font-size: 16px; white-space-collapse: preserve;&quot;&gt;warranty_period INTEGER,&lt;/span&gt;" style="text;strokeColor=none;fillColor=none;align=left;verticalAlign=top;spacingLeft=4;spacingRight=4;overflow=hidden;rotatable=0;points=[[0,0.5],[1,0.5]];portConstraint=eastwest;whiteSpace=wrap;html=1;labelBackgroundColor=none;" vertex="1" parent="6YvLLzjcVaXfIcfit6wH-50">
          <mxGeometry y="156" width="520" height="26" as="geometry" />
        </mxCell>
        <mxCell id="6YvLLzjcVaXfIcfit6wH-57" value="&lt;span style=&quot;color: rgb(38, 38, 38); font-family: quote-cjk-patch, Inter, system-ui, -apple-system, BlinkMacSystemFont, &amp;quot;Segoe UI&amp;quot;, Roboto, &amp;quot;Noto Sans&amp;quot;, Ubuntu, Cantarell, &amp;quot;Helvetica Neue&amp;quot;, Oxygen, &amp;quot;Open Sans&amp;quot;, sans-serif; font-size: 16px; white-space-collapse: preserve;&quot;&gt;additional_features TEXT&lt;/span&gt;" style="text;strokeColor=none;fillColor=none;align=left;verticalAlign=top;spacingLeft=4;spacingRight=4;overflow=hidden;rotatable=0;points=[[0,0.5],[1,0.5]];portConstraint=eastwest;whiteSpace=wrap;html=1;labelBackgroundColor=none;" vertex="1" parent="6YvLLzjcVaXfIcfit6wH-50">
          <mxGeometry y="182" width="520" height="26" as="geometry" />
        </mxCell>
        <mxCell id="6YvLLzjcVaXfIcfit6wH-60" value="&lt;span style=&quot;color: rgb(38, 38, 38); font-family: quote-cjk-patch, Inter, system-ui, -apple-system, BlinkMacSystemFont, &amp;quot;Segoe UI&amp;quot;, Roboto, &amp;quot;Noto Sans&amp;quot;, Ubuntu, Cantarell, &amp;quot;Helvetica Neue&amp;quot;, Oxygen, &amp;quot;Open Sans&amp;quot;, sans-serif; font-size: 16px; text-align: left; white-space-collapse: preserve;&quot;&gt;orders&lt;/span&gt;" style="swimlane;fontStyle=0;childLayout=stackLayout;horizontal=1;startSize=26;fillColor=none;horizontalStack=0;resizeParent=1;resizeParentMax=0;resizeLast=0;collapsible=1;marginBottom=0;whiteSpace=wrap;fontColor=default;labelBackgroundColor=none;html=1;" vertex="1" parent="1">
          <mxGeometry x="930" y="-1430" width="470" height="234" as="geometry" />
        </mxCell>
        <mxCell id="6YvLLzjcVaXfIcfit6wH-61" value="&lt;span style=&quot;color: rgb(38, 38, 38); font-family: quote-cjk-patch, Inter, system-ui, -apple-system, BlinkMacSystemFont, &amp;quot;Segoe UI&amp;quot;, Roboto, &amp;quot;Noto Sans&amp;quot;, Ubuntu, Cantarell, &amp;quot;Helvetica Neue&amp;quot;, Oxygen, &amp;quot;Open Sans&amp;quot;, sans-serif; font-size: 16px; white-space-collapse: preserve;&quot;&gt;order_id SERIAL PRIMARY KEY,&lt;/span&gt;" style="text;align=left;verticalAlign=top;spacingLeft=4;spacingRight=4;overflow=hidden;rotatable=0;points=[[0,0.5],[1,0.5]];portConstraint=eastwest;whiteSpace=wrap;html=1;imageAspect=1;labelBackgroundColor=none;" vertex="1" parent="6YvLLzjcVaXfIcfit6wH-60">
          <mxGeometry y="26" width="470" height="26" as="geometry" />
        </mxCell>
        <mxCell id="6YvLLzjcVaXfIcfit6wH-62" value="&lt;span style=&quot;color: rgb(38, 38, 38); font-family: quote-cjk-patch, Inter, system-ui, -apple-system, BlinkMacSystemFont, &amp;quot;Segoe UI&amp;quot;, Roboto, &amp;quot;Noto Sans&amp;quot;, Ubuntu, Cantarell, &amp;quot;Helvetica Neue&amp;quot;, Oxygen, &amp;quot;Open Sans&amp;quot;, sans-serif; font-size: 16px; white-space-collapse: preserve;&quot;&gt;user_id INTEGER REFERENCES users(user_id),&lt;/span&gt;" style="text;strokeColor=none;fillColor=none;align=left;verticalAlign=top;spacingLeft=4;spacingRight=4;overflow=hidden;rotatable=0;points=[[0,0.5],[1,0.5]];portConstraint=eastwest;whiteSpace=wrap;html=1;labelBackgroundColor=none;" vertex="1" parent="6YvLLzjcVaXfIcfit6wH-60">
          <mxGeometry y="52" width="470" height="26" as="geometry" />
        </mxCell>
        <mxCell id="6YvLLzjcVaXfIcfit6wH-63" value="&lt;span style=&quot;color: rgb(38, 38, 38); font-family: quote-cjk-patch, Inter, system-ui, -apple-system, BlinkMacSystemFont, &amp;quot;Segoe UI&amp;quot;, Roboto, &amp;quot;Noto Sans&amp;quot;, Ubuntu, Cantarell, &amp;quot;Helvetica Neue&amp;quot;, Oxygen, &amp;quot;Open Sans&amp;quot;, sans-serif; font-size: 16px; white-space-collapse: preserve;&quot;&gt;address_id INTEGER REFERENCES addresses(address_id),&lt;/span&gt;" style="text;strokeColor=none;fillColor=none;align=left;verticalAlign=top;spacingLeft=4;spacingRight=4;overflow=hidden;rotatable=0;points=[[0,0.5],[1,0.5]];portConstraint=eastwest;whiteSpace=wrap;html=1;labelBackgroundColor=none;" vertex="1" parent="6YvLLzjcVaXfIcfit6wH-60">
          <mxGeometry y="78" width="470" height="26" as="geometry" />
        </mxCell>
        <mxCell id="6YvLLzjcVaXfIcfit6wH-64" value="&lt;span style=&quot;color: rgb(38, 38, 38); font-family: quote-cjk-patch, Inter, system-ui, -apple-system, BlinkMacSystemFont, &amp;quot;Segoe UI&amp;quot;, Roboto, &amp;quot;Noto Sans&amp;quot;, Ubuntu, Cantarell, &amp;quot;Helvetica Neue&amp;quot;, Oxygen, &amp;quot;Open Sans&amp;quot;, sans-serif; font-size: 16px; white-space-collapse: preserve;&quot;&gt;order_date TIMESTAMP DEFAULT CURRENT_TIMESTAMP,&lt;/span&gt;" style="text;strokeColor=none;fillColor=none;align=left;verticalAlign=top;spacingLeft=4;spacingRight=4;overflow=hidden;rotatable=0;points=[[0,0.5],[1,0.5]];portConstraint=eastwest;whiteSpace=wrap;html=1;labelBackgroundColor=none;" vertex="1" parent="6YvLLzjcVaXfIcfit6wH-60">
          <mxGeometry y="104" width="470" height="26" as="geometry" />
        </mxCell>
        <mxCell id="6YvLLzjcVaXfIcfit6wH-65" value="&lt;span style=&quot;color: rgb(38, 38, 38); font-family: quote-cjk-patch, Inter, system-ui, -apple-system, BlinkMacSystemFont, &amp;quot;Segoe UI&amp;quot;, Roboto, &amp;quot;Noto Sans&amp;quot;, Ubuntu, Cantarell, &amp;quot;Helvetica Neue&amp;quot;, Oxygen, &amp;quot;Open Sans&amp;quot;, sans-serif; font-size: 16px; white-space-collapse: preserve;&quot;&gt;total_amount DECIMAL(10, 2) NOT NULL,&lt;/span&gt;" style="text;strokeColor=none;fillColor=none;align=left;verticalAlign=top;spacingLeft=4;spacingRight=4;overflow=hidden;rotatable=0;points=[[0,0.5],[1,0.5]];portConstraint=eastwest;whiteSpace=wrap;html=1;labelBackgroundColor=none;" vertex="1" parent="6YvLLzjcVaXfIcfit6wH-60">
          <mxGeometry y="130" width="470" height="26" as="geometry" />
        </mxCell>
        <mxCell id="6YvLLzjcVaXfIcfit6wH-66" value="&lt;span style=&quot;color: rgb(38, 38, 38); font-family: quote-cjk-patch, Inter, system-ui, -apple-system, BlinkMacSystemFont, &amp;quot;Segoe UI&amp;quot;, Roboto, &amp;quot;Noto Sans&amp;quot;, Ubuntu, Cantarell, &amp;quot;Helvetica Neue&amp;quot;, Oxygen, &amp;quot;Open Sans&amp;quot;, sans-serif; font-size: 16px; white-space-collapse: preserve;&quot;&gt;status VARCHAR(20) DEFAULT &#39;pending&#39;,&lt;/span&gt;" style="text;strokeColor=none;fillColor=none;align=left;verticalAlign=top;spacingLeft=4;spacingRight=4;overflow=hidden;rotatable=0;points=[[0,0.5],[1,0.5]];portConstraint=eastwest;whiteSpace=wrap;html=1;labelBackgroundColor=none;" vertex="1" parent="6YvLLzjcVaXfIcfit6wH-60">
          <mxGeometry y="156" width="470" height="26" as="geometry" />
        </mxCell>
        <mxCell id="6YvLLzjcVaXfIcfit6wH-67" value="&lt;span style=&quot;color: rgb(38, 38, 38); font-family: quote-cjk-patch, Inter, system-ui, -apple-system, BlinkMacSystemFont, &amp;quot;Segoe UI&amp;quot;, Roboto, &amp;quot;Noto Sans&amp;quot;, Ubuntu, Cantarell, &amp;quot;Helvetica Neue&amp;quot;, Oxygen, &amp;quot;Open Sans&amp;quot;, sans-serif; font-size: 16px; white-space-collapse: preserve;&quot;&gt;payment_method VARCHAR(50),&lt;/span&gt;" style="text;strokeColor=none;fillColor=none;align=left;verticalAlign=top;spacingLeft=4;spacingRight=4;overflow=hidden;rotatable=0;points=[[0,0.5],[1,0.5]];portConstraint=eastwest;whiteSpace=wrap;html=1;labelBackgroundColor=none;" vertex="1" parent="6YvLLzjcVaXfIcfit6wH-60">
          <mxGeometry y="182" width="470" height="26" as="geometry" />
        </mxCell>
        <mxCell id="6YvLLzjcVaXfIcfit6wH-68" value="&lt;span style=&quot;color: rgb(38, 38, 38); font-family: quote-cjk-patch, Inter, system-ui, -apple-system, BlinkMacSystemFont, &amp;quot;Segoe UI&amp;quot;, Roboto, &amp;quot;Noto Sans&amp;quot;, Ubuntu, Cantarell, &amp;quot;Helvetica Neue&amp;quot;, Oxygen, &amp;quot;Open Sans&amp;quot;, sans-serif; font-size: 16px; white-space-collapse: preserve;&quot;&gt;tracking_number VARCHAR(100)&lt;/span&gt;" style="text;strokeColor=none;fillColor=none;align=left;verticalAlign=top;spacingLeft=4;spacingRight=4;overflow=hidden;rotatable=0;points=[[0,0.5],[1,0.5]];portConstraint=eastwest;whiteSpace=wrap;html=1;labelBackgroundColor=none;" vertex="1" parent="6YvLLzjcVaXfIcfit6wH-60">
          <mxGeometry y="208" width="470" height="26" as="geometry" />
        </mxCell>
        <mxCell id="6YvLLzjcVaXfIcfit6wH-70" value="&lt;span style=&quot;color: rgb(38, 38, 38); font-family: quote-cjk-patch, Inter, system-ui, -apple-system, BlinkMacSystemFont, &amp;quot;Segoe UI&amp;quot;, Roboto, &amp;quot;Noto Sans&amp;quot;, Ubuntu, Cantarell, &amp;quot;Helvetica Neue&amp;quot;, Oxygen, &amp;quot;Open Sans&amp;quot;, sans-serif; font-size: 16px; text-align: left; white-space-collapse: preserve;&quot;&gt;order_items&lt;/span&gt;" style="swimlane;fontStyle=0;childLayout=stackLayout;horizontal=1;startSize=26;fillColor=none;horizontalStack=0;resizeParent=1;resizeParentMax=0;resizeLast=0;collapsible=1;marginBottom=0;whiteSpace=wrap;fontColor=default;labelBackgroundColor=none;html=1;" vertex="1" parent="1">
          <mxGeometry x="1480" y="-1430" width="630" height="182" as="geometry" />
        </mxCell>
        <mxCell id="6YvLLzjcVaXfIcfit6wH-71" value="&lt;span style=&quot;color: rgb(38, 38, 38); font-family: quote-cjk-patch, Inter, system-ui, -apple-system, BlinkMacSystemFont, &amp;quot;Segoe UI&amp;quot;, Roboto, &amp;quot;Noto Sans&amp;quot;, Ubuntu, Cantarell, &amp;quot;Helvetica Neue&amp;quot;, Oxygen, &amp;quot;Open Sans&amp;quot;, sans-serif; font-size: 16px; white-space-collapse: preserve;&quot;&gt;order_item_id SERIAL PRIMARY KEY,&lt;/span&gt;" style="text;align=left;verticalAlign=top;spacingLeft=4;spacingRight=4;overflow=hidden;rotatable=0;points=[[0,0.5],[1,0.5]];portConstraint=eastwest;whiteSpace=wrap;html=1;imageAspect=1;labelBackgroundColor=none;" vertex="1" parent="6YvLLzjcVaXfIcfit6wH-70">
          <mxGeometry y="26" width="630" height="26" as="geometry" />
        </mxCell>
        <mxCell id="6YvLLzjcVaXfIcfit6wH-72" value="&lt;span style=&quot;color: rgb(38, 38, 38); font-family: quote-cjk-patch, Inter, system-ui, -apple-system, BlinkMacSystemFont, &amp;quot;Segoe UI&amp;quot;, Roboto, &amp;quot;Noto Sans&amp;quot;, Ubuntu, Cantarell, &amp;quot;Helvetica Neue&amp;quot;, Oxygen, &amp;quot;Open Sans&amp;quot;, sans-serif; font-size: 16px; white-space-collapse: preserve;&quot;&gt;order_id INTEGER REFERENCES orders(order_id),&lt;/span&gt;" style="text;strokeColor=none;fillColor=none;align=left;verticalAlign=top;spacingLeft=4;spacingRight=4;overflow=hidden;rotatable=0;points=[[0,0.5],[1,0.5]];portConstraint=eastwest;whiteSpace=wrap;html=1;labelBackgroundColor=none;" vertex="1" parent="6YvLLzjcVaXfIcfit6wH-70">
          <mxGeometry y="52" width="630" height="26" as="geometry" />
        </mxCell>
        <mxCell id="6YvLLzjcVaXfIcfit6wH-73" value="&lt;span style=&quot;color: rgb(38, 38, 38); font-family: quote-cjk-patch, Inter, system-ui, -apple-system, BlinkMacSystemFont, &amp;quot;Segoe UI&amp;quot;, Roboto, &amp;quot;Noto Sans&amp;quot;, Ubuntu, Cantarell, &amp;quot;Helvetica Neue&amp;quot;, Oxygen, &amp;quot;Open Sans&amp;quot;, sans-serif; font-size: 16px; white-space-collapse: preserve;&quot;&gt;product_id INTEGER REFERENCES products(product_id),&lt;/span&gt;" style="text;strokeColor=none;fillColor=none;align=left;verticalAlign=top;spacingLeft=4;spacingRight=4;overflow=hidden;rotatable=0;points=[[0,0.5],[1,0.5]];portConstraint=eastwest;whiteSpace=wrap;html=1;labelBackgroundColor=none;" vertex="1" parent="6YvLLzjcVaXfIcfit6wH-70">
          <mxGeometry y="78" width="630" height="26" as="geometry" />
        </mxCell>
        <mxCell id="6YvLLzjcVaXfIcfit6wH-74" value="&lt;span style=&quot;color: rgb(38, 38, 38); font-family: quote-cjk-patch, Inter, system-ui, -apple-system, BlinkMacSystemFont, &amp;quot;Segoe UI&amp;quot;, Roboto, &amp;quot;Noto Sans&amp;quot;, Ubuntu, Cantarell, &amp;quot;Helvetica Neue&amp;quot;, Oxygen, &amp;quot;Open Sans&amp;quot;, sans-serif; font-size: 16px; white-space-collapse: preserve;&quot;&gt;quantity INTEGER NOT NULL,&lt;/span&gt;" style="text;strokeColor=none;fillColor=none;align=left;verticalAlign=top;spacingLeft=4;spacingRight=4;overflow=hidden;rotatable=0;points=[[0,0.5],[1,0.5]];portConstraint=eastwest;whiteSpace=wrap;html=1;labelBackgroundColor=none;" vertex="1" parent="6YvLLzjcVaXfIcfit6wH-70">
          <mxGeometry y="104" width="630" height="26" as="geometry" />
        </mxCell>
        <mxCell id="6YvLLzjcVaXfIcfit6wH-75" value="&lt;span style=&quot;color: rgb(38, 38, 38); font-family: quote-cjk-patch, Inter, system-ui, -apple-system, BlinkMacSystemFont, &amp;quot;Segoe UI&amp;quot;, Roboto, &amp;quot;Noto Sans&amp;quot;, Ubuntu, Cantarell, &amp;quot;Helvetica Neue&amp;quot;, Oxygen, &amp;quot;Open Sans&amp;quot;, sans-serif; font-size: 16px; white-space-collapse: preserve;&quot;&gt;unit_price DECIMAL(10, 2) NOT NULL,&lt;/span&gt;" style="text;strokeColor=none;fillColor=none;align=left;verticalAlign=top;spacingLeft=4;spacingRight=4;overflow=hidden;rotatable=0;points=[[0,0.5],[1,0.5]];portConstraint=eastwest;whiteSpace=wrap;html=1;labelBackgroundColor=none;" vertex="1" parent="6YvLLzjcVaXfIcfit6wH-70">
          <mxGeometry y="130" width="630" height="26" as="geometry" />
        </mxCell>
        <mxCell id="6YvLLzjcVaXfIcfit6wH-76" value="&lt;span style=&quot;color: rgb(38, 38, 38); font-family: quote-cjk-patch, Inter, system-ui, -apple-system, BlinkMacSystemFont, &amp;quot;Segoe UI&amp;quot;, Roboto, &amp;quot;Noto Sans&amp;quot;, Ubuntu, Cantarell, &amp;quot;Helvetica Neue&amp;quot;, Oxygen, &amp;quot;Open Sans&amp;quot;, sans-serif; font-size: 16px; white-space-collapse: preserve;&quot;&gt;subtotal DECIMAL(10, 2) GENERATED ALWAYS AS (quantity * unit_price) STORED&lt;/span&gt;" style="text;strokeColor=none;fillColor=none;align=left;verticalAlign=top;spacingLeft=4;spacingRight=4;overflow=hidden;rotatable=0;points=[[0,0.5],[1,0.5]];portConstraint=eastwest;whiteSpace=wrap;html=1;labelBackgroundColor=none;" vertex="1" parent="6YvLLzjcVaXfIcfit6wH-70">
          <mxGeometry y="156" width="630" height="26" as="geometry" />
        </mxCell>
        <mxCell id="6YvLLzjcVaXfIcfit6wH-79" style="edgeStyle=orthogonalEdgeStyle;rounded=0;orthogonalLoop=1;jettySize=auto;html=1;entryX=0;entryY=0.5;entryDx=0;entryDy=0;startArrow=ERone;startFill=0;strokeColor=default;endArrow=ERmany;endFill=0;" edge="1" parent="1" source="6YvLLzjcVaXfIcfit6wH-14" target="6YvLLzjcVaXfIcfit6wH-3">
          <mxGeometry relative="1" as="geometry" />
        </mxCell>
        <mxCell id="6YvLLzjcVaXfIcfit6wH-80" style="edgeStyle=orthogonalEdgeStyle;rounded=0;orthogonalLoop=1;jettySize=auto;html=1;entryX=0;entryY=0.5;entryDx=0;entryDy=0;startArrow=ERone;startFill=0;endArrow=ERone;endFill=0;" edge="1" parent="1" source="6YvLLzjcVaXfIcfit6wH-52" target="6YvLLzjcVaXfIcfit6wH-41">
          <mxGeometry relative="1" as="geometry" />
        </mxCell>
        <mxCell id="6YvLLzjcVaXfIcfit6wH-81" style="edgeStyle=orthogonalEdgeStyle;rounded=0;orthogonalLoop=1;jettySize=auto;html=1;exitX=0;exitY=0.5;exitDx=0;exitDy=0;entryX=1;entryY=0.5;entryDx=0;entryDy=0;startArrow=ERmany;startFill=0;endArrow=ERone;endFill=0;" edge="1" parent="1" source="6YvLLzjcVaXfIcfit6wH-62" target="6YvLLzjcVaXfIcfit6wH-3">
          <mxGeometry relative="1" as="geometry" />
        </mxCell>
        <mxCell id="6YvLLzjcVaXfIcfit6wH-82" style="edgeStyle=orthogonalEdgeStyle;rounded=0;orthogonalLoop=1;jettySize=auto;html=1;exitX=0;exitY=0.5;exitDx=0;exitDy=0;entryX=1;entryY=0.5;entryDx=0;entryDy=0;startArrow=ERmany;startFill=0;endArrow=ERone;endFill=0;" edge="1" parent="1" source="6YvLLzjcVaXfIcfit6wH-63" target="6YvLLzjcVaXfIcfit6wH-13">
          <mxGeometry relative="1" as="geometry" />
        </mxCell>
        <mxCell id="6YvLLzjcVaXfIcfit6wH-83" style="edgeStyle=orthogonalEdgeStyle;rounded=0;orthogonalLoop=1;jettySize=auto;html=1;entryX=1;entryY=0.5;entryDx=0;entryDy=0;startArrow=ERmany;startFill=0;endArrow=ERone;endFill=0;" edge="1" parent="1" source="6YvLLzjcVaXfIcfit6wH-72" target="6YvLLzjcVaXfIcfit6wH-61">
          <mxGeometry relative="1" as="geometry" />
        </mxCell>
        <mxCell id="6YvLLzjcVaXfIcfit6wH-84" style="edgeStyle=orthogonalEdgeStyle;rounded=0;orthogonalLoop=1;jettySize=auto;html=1;exitX=0;exitY=0.5;exitDx=0;exitDy=0;entryX=1;entryY=0.5;entryDx=0;entryDy=0;startArrow=ERmany;startFill=0;endArrow=ERone;endFill=0;" edge="1" parent="1" source="6YvLLzjcVaXfIcfit6wH-73" target="6YvLLzjcVaXfIcfit6wH-41">
          <mxGeometry relative="1" as="geometry">
            <Array as="points">
              <mxPoint x="1430" y="-1339" />
              <mxPoint x="1430" y="-401" />
            </Array>
          </mxGeometry>
        </mxCell>
        <mxCell id="6YvLLzjcVaXfIcfit6wH-85" style="edgeStyle=orthogonalEdgeStyle;rounded=0;orthogonalLoop=1;jettySize=auto;html=1;entryX=1;entryY=0.5;entryDx=0;entryDy=0;startArrow=ERmany;startFill=0;endArrow=ERone;endFill=0;" edge="1" parent="1" source="6YvLLzjcVaXfIcfit6wH-46" target="6YvLLzjcVaXfIcfit6wH-23">
          <mxGeometry relative="1" as="geometry">
            <Array as="points">
              <mxPoint x="880" y="-271" />
              <mxPoint x="880" y="-821" />
            </Array>
          </mxGeometry>
        </mxCell>
        <mxCell id="6YvLLzjcVaXfIcfit6wH-86" style="edgeStyle=orthogonalEdgeStyle;rounded=0;orthogonalLoop=1;jettySize=auto;html=1;exitX=1;exitY=0.5;exitDx=0;exitDy=0;entryX=1;entryY=0.5;entryDx=0;entryDy=0;startArrow=ERmany;startFill=0;endArrow=ERone;endFill=0;" edge="1" parent="1" source="6YvLLzjcVaXfIcfit6wH-47" target="6YvLLzjcVaXfIcfit6wH-32">
          <mxGeometry relative="1" as="geometry" />
        </mxCell>
      </root>
    </mxGraphModel>
  </diagram>
  <diagram name="Страница — 2" id="M1rD-IvRVt-LajGFAjyf">
    <mxGraphModel dx="1613" dy="1628" grid="1" gridSize="10" guides="1" tooltips="1" connect="1" arrows="1" fold="1" page="1" pageScale="1" pageWidth="827" pageHeight="1169" math="0" shadow="0">
      <root>
        <mxCell id="0" />
        <mxCell id="1" parent="0" />
        <mxCell id="27J1K7Ltpk_V2WUuVOmh-3" style="edgeStyle=orthogonalEdgeStyle;rounded=0;orthogonalLoop=1;jettySize=auto;html=1;" parent="1" source="27J1K7Ltpk_V2WUuVOmh-1" target="27J1K7Ltpk_V2WUuVOmh-2" edge="1">
          <mxGeometry relative="1" as="geometry" />
        </mxCell>
        <mxCell id="27J1K7Ltpk_V2WUuVOmh-1" value="появилась необходимость&lt;div&gt;создать РП&lt;/div&gt;" style="points=[[0.145,0.145,0],[0.5,0,0],[0.855,0.145,0],[1,0.5,0],[0.855,0.855,0],[0.5,1,0],[0.145,0.855,0],[0,0.5,0]];shape=mxgraph.bpmn.event;html=1;verticalLabelPosition=bottom;labelBackgroundColor=#ffffff;verticalAlign=top;align=center;perimeter=ellipsePerimeter;outlineConnect=0;aspect=fixed;outline=standard;symbol=general;" parent="1" vertex="1">
          <mxGeometry x="-460" y="190" width="50" height="50" as="geometry" />
        </mxCell>
        <mxCell id="27J1K7Ltpk_V2WUuVOmh-64" value="" style="edgeStyle=orthogonalEdgeStyle;rounded=0;orthogonalLoop=1;jettySize=auto;html=1;" parent="1" source="27J1K7Ltpk_V2WUuVOmh-2" target="27J1K7Ltpk_V2WUuVOmh-63" edge="1">
          <mxGeometry relative="1" as="geometry" />
        </mxCell>
        <mxCell id="27J1K7Ltpk_V2WUuVOmh-2" value="&lt;em data-pm-slice=&quot;1 1 [&amp;quot;table&amp;quot;,null,&amp;quot;table_row&amp;quot;,null]&quot;&gt;Исполнитель создал РП&amp;nbsp;&lt;/em&gt;" style="points=[[0.25,0,0],[0.5,0,0],[0.75,0,0],[1,0.25,0],[1,0.5,0],[1,0.75,0],[0.75,1,0],[0.5,1,0],[0.25,1,0],[0,0.75,0],[0,0.5,0],[0,0.25,0]];shape=mxgraph.bpmn.task2;whiteSpace=wrap;rectStyle=rounded;size=10;html=1;container=1;expand=0;collapsible=0;taskMarker=user;" parent="1" vertex="1">
          <mxGeometry x="-330" y="175" width="130" height="80" as="geometry" />
        </mxCell>
        <mxCell id="27J1K7Ltpk_V2WUuVOmh-100" value="" style="edgeStyle=orthogonalEdgeStyle;rounded=0;orthogonalLoop=1;jettySize=auto;html=1;" parent="1" source="27J1K7Ltpk_V2WUuVOmh-4" target="27J1K7Ltpk_V2WUuVOmh-99" edge="1">
          <mxGeometry relative="1" as="geometry" />
        </mxCell>
        <mxCell id="27J1K7Ltpk_V2WUuVOmh-4" value="&lt;em data-pm-slice=&quot;1 1 [&amp;quot;table&amp;quot;,null,&amp;quot;table_row&amp;quot;,null]&quot;&gt;Система перевела РП на заказчика&lt;/em&gt;" style="points=[[0.25,0,0],[0.5,0,0],[0.75,0,0],[1,0.25,0],[1,0.5,0],[1,0.75,0],[0.75,1,0],[0.5,1,0],[0.25,1,0],[0,0.75,0],[0,0.5,0],[0,0.25,0]];shape=mxgraph.bpmn.task2;whiteSpace=wrap;rectStyle=rounded;size=10;html=1;container=1;expand=0;collapsible=0;taskMarker=service;" parent="1" vertex="1">
          <mxGeometry x="430" y="175" width="130" height="80" as="geometry" />
        </mxCell>
        <mxCell id="27J1K7Ltpk_V2WUuVOmh-9" value="" style="edgeStyle=orthogonalEdgeStyle;rounded=0;orthogonalLoop=1;jettySize=auto;html=1;" parent="1" source="27J1K7Ltpk_V2WUuVOmh-6" target="27J1K7Ltpk_V2WUuVOmh-10" edge="1">
          <mxGeometry relative="1" as="geometry">
            <mxPoint x="1050" y="215" as="targetPoint" />
          </mxGeometry>
        </mxCell>
        <mxCell id="27J1K7Ltpk_V2WUuVOmh-6" value="&lt;em data-pm-slice=&quot;1 1 [&amp;quot;table&amp;quot;,null,&amp;quot;table_row&amp;quot;,null]&quot;&gt;Заказчик взял РП состоящий из 3 строк в работу. &lt;strong&gt;&amp;nbsp;&lt;/strong&gt;&lt;/em&gt;" style="points=[[0.25,0,0],[0.5,0,0],[0.75,0,0],[1,0.25,0],[1,0.5,0],[1,0.75,0],[0.75,1,0],[0.5,1,0],[0.25,1,0],[0,0.75,0],[0,0.5,0],[0,0.25,0]];shape=mxgraph.bpmn.task2;whiteSpace=wrap;rectStyle=rounded;size=10;html=1;container=1;expand=0;collapsible=0;taskMarker=user;" parent="1" vertex="1">
          <mxGeometry x="790" y="175" width="130" height="80" as="geometry" />
        </mxCell>
        <mxCell id="27J1K7Ltpk_V2WUuVOmh-11" style="edgeStyle=orthogonalEdgeStyle;rounded=0;orthogonalLoop=1;jettySize=auto;html=1;entryX=0;entryY=0.5;entryDx=0;entryDy=0;entryPerimeter=0;" parent="1" source="27J1K7Ltpk_V2WUuVOmh-10" target="27J1K7Ltpk_V2WUuVOmh-12" edge="1">
          <mxGeometry relative="1" as="geometry">
            <mxPoint x="1045" y="90" as="targetPoint" />
            <Array as="points">
              <mxPoint x="985" y="50" />
            </Array>
          </mxGeometry>
        </mxCell>
        <mxCell id="27J1K7Ltpk_V2WUuVOmh-10" value="" style="points=[[0.25,0.25,0],[0.5,0,0],[0.75,0.25,0],[1,0.5,0],[0.75,0.75,0],[0.5,1,0],[0.25,0.75,0],[0,0.5,0]];shape=mxgraph.bpmn.gateway2;html=1;verticalLabelPosition=bottom;labelBackgroundColor=#ffffff;verticalAlign=top;align=center;perimeter=rhombusPerimeter;outlineConnect=0;outline=none;symbol=none;gwType=parallel;" parent="1" vertex="1">
          <mxGeometry x="960" y="190" width="50" height="50" as="geometry" />
        </mxCell>
        <mxCell id="27J1K7Ltpk_V2WUuVOmh-17" value="" style="edgeStyle=orthogonalEdgeStyle;rounded=0;orthogonalLoop=1;jettySize=auto;html=1;" parent="1" source="27J1K7Ltpk_V2WUuVOmh-12" target="27J1K7Ltpk_V2WUuVOmh-16" edge="1">
          <mxGeometry relative="1" as="geometry" />
        </mxCell>
        <mxCell id="27J1K7Ltpk_V2WUuVOmh-12" value="&lt;em data-pm-slice=&quot;1 1 [&amp;quot;table&amp;quot;,null,&amp;quot;table_row&amp;quot;,null]&quot;&gt;Заказчик установил 2 чекбокса в строках 1 и 2 и нажал кнопку &quot;Одобрить&quot;&lt;/em&gt;" style="points=[[0.25,0,0],[0.5,0,0],[0.75,0,0],[1,0.25,0],[1,0.5,0],[1,0.75,0],[0.75,1,0],[0.5,1,0],[0.25,1,0],[0,0.75,0],[0,0.5,0],[0,0.25,0]];shape=mxgraph.bpmn.task2;whiteSpace=wrap;rectStyle=rounded;size=10;html=1;container=1;expand=0;collapsible=0;taskMarker=user;" parent="1" vertex="1">
          <mxGeometry x="1111" y="10" width="130" height="80" as="geometry" />
        </mxCell>
        <mxCell id="27J1K7Ltpk_V2WUuVOmh-19" value="" style="edgeStyle=orthogonalEdgeStyle;rounded=0;orthogonalLoop=1;jettySize=auto;html=1;" parent="1" source="27J1K7Ltpk_V2WUuVOmh-13" target="27J1K7Ltpk_V2WUuVOmh-18" edge="1">
          <mxGeometry relative="1" as="geometry" />
        </mxCell>
        <mxCell id="27J1K7Ltpk_V2WUuVOmh-13" value="&lt;em data-pm-slice=&quot;1 1 [&amp;quot;table&amp;quot;,null,&amp;quot;table_row&amp;quot;,null]&quot;&gt;Заказчик установил 1 чекбокс по строке 3 и нажал кнопку &quot;Вернуть на доработку&quot;&lt;/em&gt;" style="points=[[0.25,0,0],[0.5,0,0],[0.75,0,0],[1,0.25,0],[1,0.5,0],[1,0.75,0],[0.75,1,0],[0.5,1,0],[0.25,1,0],[0,0.75,0],[0,0.5,0],[0,0.25,0]];shape=mxgraph.bpmn.task2;whiteSpace=wrap;rectStyle=rounded;size=10;html=1;container=1;expand=0;collapsible=0;taskMarker=user;" parent="1" vertex="1">
          <mxGeometry x="1111" y="330" width="130" height="80" as="geometry" />
        </mxCell>
        <mxCell id="27J1K7Ltpk_V2WUuVOmh-14" style="edgeStyle=orthogonalEdgeStyle;rounded=0;orthogonalLoop=1;jettySize=auto;html=1;entryX=0;entryY=0.5;entryDx=0;entryDy=0;entryPerimeter=0;" parent="1" source="27J1K7Ltpk_V2WUuVOmh-10" target="27J1K7Ltpk_V2WUuVOmh-13" edge="1">
          <mxGeometry relative="1" as="geometry">
            <Array as="points">
              <mxPoint x="985" y="370" />
            </Array>
          </mxGeometry>
        </mxCell>
        <mxCell id="27J1K7Ltpk_V2WUuVOmh-21" style="edgeStyle=orthogonalEdgeStyle;rounded=0;orthogonalLoop=1;jettySize=auto;html=1;" parent="1" source="27J1K7Ltpk_V2WUuVOmh-16" target="27J1K7Ltpk_V2WUuVOmh-20" edge="1">
          <mxGeometry relative="1" as="geometry" />
        </mxCell>
        <mxCell id="27J1K7Ltpk_V2WUuVOmh-16" value="&lt;em data-pm-slice=&quot;1 1 [&amp;quot;table&amp;quot;,null,&amp;quot;table_row&amp;quot;,null]&quot;&gt;Система поменяла статус в строке РП на &quot;Одобрено&quot;&lt;/em&gt;" style="points=[[0.25,0,0],[0.5,0,0],[0.75,0,0],[1,0.25,0],[1,0.5,0],[1,0.75,0],[0.75,1,0],[0.5,1,0],[0.25,1,0],[0,0.75,0],[0,0.5,0],[0,0.25,0]];shape=mxgraph.bpmn.task2;whiteSpace=wrap;rectStyle=rounded;size=10;html=1;container=1;expand=0;collapsible=0;taskMarker=service;" parent="1" vertex="1">
          <mxGeometry x="1321" y="10" width="130" height="80" as="geometry" />
        </mxCell>
        <mxCell id="27J1K7Ltpk_V2WUuVOmh-18" value="&lt;em data-pm-slice=&quot;1 1 [&amp;quot;table&amp;quot;,null,&amp;quot;table_row&amp;quot;,null]&quot;&gt;Система поменяла статус в строке РП на &quot;На доработке&quot;&lt;/em&gt;" style="points=[[0.25,0,0],[0.5,0,0],[0.75,0,0],[1,0.25,0],[1,0.5,0],[1,0.75,0],[0.75,1,0],[0.5,1,0],[0.25,1,0],[0,0.75,0],[0,0.5,0],[0,0.25,0]];shape=mxgraph.bpmn.task2;whiteSpace=wrap;rectStyle=rounded;size=10;html=1;container=1;expand=0;collapsible=0;taskMarker=service;" parent="1" vertex="1">
          <mxGeometry x="1321" y="330" width="130" height="80" as="geometry" />
        </mxCell>
        <mxCell id="27J1K7Ltpk_V2WUuVOmh-24" style="edgeStyle=orthogonalEdgeStyle;rounded=0;orthogonalLoop=1;jettySize=auto;html=1;" parent="1" source="27J1K7Ltpk_V2WUuVOmh-20" target="27J1K7Ltpk_V2WUuVOmh-23" edge="1">
          <mxGeometry relative="1" as="geometry" />
        </mxCell>
        <mxCell id="27J1K7Ltpk_V2WUuVOmh-20" value="" style="points=[[0.25,0.25,0],[0.5,0,0],[0.75,0.25,0],[1,0.5,0],[0.75,0.75,0],[0.5,1,0],[0.25,0.75,0],[0,0.5,0]];shape=mxgraph.bpmn.gateway2;html=1;verticalLabelPosition=bottom;labelBackgroundColor=#ffffff;verticalAlign=top;align=center;perimeter=rhombusPerimeter;outlineConnect=0;outline=none;symbol=none;gwType=parallel;" parent="1" vertex="1">
          <mxGeometry x="1510" y="190" width="50" height="50" as="geometry" />
        </mxCell>
        <mxCell id="27J1K7Ltpk_V2WUuVOmh-22" style="edgeStyle=orthogonalEdgeStyle;rounded=0;orthogonalLoop=1;jettySize=auto;html=1;entryX=0.5;entryY=1;entryDx=0;entryDy=0;entryPerimeter=0;" parent="1" source="27J1K7Ltpk_V2WUuVOmh-18" target="27J1K7Ltpk_V2WUuVOmh-20" edge="1">
          <mxGeometry relative="1" as="geometry" />
        </mxCell>
        <mxCell id="27J1K7Ltpk_V2WUuVOmh-28" value="" style="edgeStyle=orthogonalEdgeStyle;rounded=0;orthogonalLoop=1;jettySize=auto;html=1;" parent="1" source="27J1K7Ltpk_V2WUuVOmh-23" target="27J1K7Ltpk_V2WUuVOmh-29" edge="1">
          <mxGeometry relative="1" as="geometry" />
        </mxCell>
        <mxCell id="27J1K7Ltpk_V2WUuVOmh-23" value="&lt;em data-pm-slice=&quot;1 1 [&amp;quot;table&amp;quot;,null,&amp;quot;table_row&amp;quot;,null]&quot;&gt;Заказчик нажал на кнопку &quot;Направить&quot;&lt;/em&gt;" style="points=[[0.25,0,0],[0.5,0,0],[0.75,0,0],[1,0.25,0],[1,0.5,0],[1,0.75,0],[0.75,1,0],[0.5,1,0],[0.25,1,0],[0,0.75,0],[0,0.5,0],[0,0.25,0]];shape=mxgraph.bpmn.task2;whiteSpace=wrap;rectStyle=rounded;size=10;html=1;container=1;expand=0;collapsible=0;taskMarker=user;" parent="1" vertex="1">
          <mxGeometry x="1630" y="175" width="130" height="80" as="geometry" />
        </mxCell>
        <mxCell id="27J1K7Ltpk_V2WUuVOmh-25" value="Универсальная кнопка в документе. По клику на нее строки одобренные - направляются далее, а строки на доработку - направляются на доработку." style="shape=callout;whiteSpace=wrap;html=1;perimeter=calloutPerimeter;" parent="1" vertex="1">
          <mxGeometry x="1602.5" y="40" width="185" height="135" as="geometry" />
        </mxCell>
        <mxCell id="27J1K7Ltpk_V2WUuVOmh-26" value="Кнопка появится вместо &quot;Отклонить&quot;. Отклонить строку больше будет нельзя. Только &quot;Одобрить&quot; или &quot;Вернуть на доработку&quot;" style="shape=callout;whiteSpace=wrap;html=1;perimeter=calloutPerimeter;" parent="1" vertex="1">
          <mxGeometry x="1083.5" y="195" width="185" height="135" as="geometry" />
        </mxCell>
        <mxCell id="27J1K7Ltpk_V2WUuVOmh-34" value="" style="edgeStyle=orthogonalEdgeStyle;rounded=0;orthogonalLoop=1;jettySize=auto;html=1;" parent="1" source="27J1K7Ltpk_V2WUuVOmh-27" target="27J1K7Ltpk_V2WUuVOmh-33" edge="1">
          <mxGeometry relative="1" as="geometry" />
        </mxCell>
        <mxCell id="27J1K7Ltpk_V2WUuVOmh-27" value="&lt;em data-pm-slice=&quot;1 1 [&amp;quot;table&amp;quot;,null,&amp;quot;table_row&amp;quot;,null]&quot;&gt;Система направила 2 строки из Реестра платежей далее по маршруту на Заказчика БС&lt;/em&gt;" style="points=[[0.25,0,0],[0.5,0,0],[0.75,0,0],[1,0.25,0],[1,0.5,0],[1,0.75,0],[0.75,1,0],[0.5,1,0],[0.25,1,0],[0,0.75,0],[0,0.5,0],[0,0.25,0]];shape=mxgraph.bpmn.task2;whiteSpace=wrap;rectStyle=rounded;size=10;html=1;container=1;expand=0;collapsible=0;taskMarker=service;" parent="1" vertex="1">
          <mxGeometry x="1960" y="10" width="130" height="80" as="geometry" />
        </mxCell>
        <mxCell id="27J1K7Ltpk_V2WUuVOmh-29" value="" style="points=[[0.25,0.25,0],[0.5,0,0],[0.75,0.25,0],[1,0.5,0],[0.75,0.75,0],[0.5,1,0],[0.25,0.75,0],[0,0.5,0]];shape=mxgraph.bpmn.gateway2;html=1;verticalLabelPosition=bottom;labelBackgroundColor=#ffffff;verticalAlign=top;align=center;perimeter=rhombusPerimeter;outlineConnect=0;outline=none;symbol=none;gwType=parallel;" parent="1" vertex="1">
          <mxGeometry x="1850" y="190" width="50" height="50" as="geometry" />
        </mxCell>
        <mxCell id="27J1K7Ltpk_V2WUuVOmh-30" style="edgeStyle=orthogonalEdgeStyle;rounded=0;orthogonalLoop=1;jettySize=auto;html=1;entryX=0;entryY=0.5;entryDx=0;entryDy=0;entryPerimeter=0;" parent="1" source="27J1K7Ltpk_V2WUuVOmh-29" target="27J1K7Ltpk_V2WUuVOmh-27" edge="1">
          <mxGeometry relative="1" as="geometry">
            <Array as="points">
              <mxPoint x="1875" y="50" />
            </Array>
          </mxGeometry>
        </mxCell>
        <mxCell id="27J1K7Ltpk_V2WUuVOmh-36" value="" style="edgeStyle=orthogonalEdgeStyle;rounded=0;orthogonalLoop=1;jettySize=auto;html=1;" parent="1" source="27J1K7Ltpk_V2WUuVOmh-31" target="27J1K7Ltpk_V2WUuVOmh-35" edge="1">
          <mxGeometry relative="1" as="geometry" />
        </mxCell>
        <mxCell id="27J1K7Ltpk_V2WUuVOmh-31" value="&lt;em data-pm-slice=&quot;1 1 [&amp;quot;table&amp;quot;,null,&amp;quot;table_row&amp;quot;,null]&quot;&gt;Система направила 1 строку из Реестра платежей на доработку Исполнителю&amp;nbsp;&lt;/em&gt;" style="points=[[0.25,0,0],[0.5,0,0],[0.75,0,0],[1,0.25,0],[1,0.5,0],[1,0.75,0],[0.75,1,0],[0.5,1,0],[0.25,1,0],[0,0.75,0],[0,0.5,0],[0,0.25,0]];shape=mxgraph.bpmn.task2;whiteSpace=wrap;rectStyle=rounded;size=10;html=1;container=1;expand=0;collapsible=0;taskMarker=service;" parent="1" vertex="1">
          <mxGeometry x="1960" y="330" width="130" height="80" as="geometry" />
        </mxCell>
        <mxCell id="27J1K7Ltpk_V2WUuVOmh-32" style="edgeStyle=orthogonalEdgeStyle;rounded=0;orthogonalLoop=1;jettySize=auto;html=1;entryX=0;entryY=0.5;entryDx=0;entryDy=0;entryPerimeter=0;" parent="1" source="27J1K7Ltpk_V2WUuVOmh-29" target="27J1K7Ltpk_V2WUuVOmh-31" edge="1">
          <mxGeometry relative="1" as="geometry">
            <Array as="points">
              <mxPoint x="1875" y="370" />
            </Array>
          </mxGeometry>
        </mxCell>
        <mxCell id="27J1K7Ltpk_V2WUuVOmh-33" value="&lt;em data-pm-slice=&quot;1 1 [&amp;quot;table&amp;quot;,null,&amp;quot;table_row&amp;quot;,null]&quot;&gt;Заказчик БС получил РП состоящий из 2х строк по которым он может принять решение&lt;/em&gt;" style="points=[[0.25,0,0],[0.5,0,0],[0.75,0,0],[1,0.25,0],[1,0.5,0],[1,0.75,0],[0.75,1,0],[0.5,1,0],[0.25,1,0],[0,0.75,0],[0,0.5,0],[0,0.25,0]];shape=mxgraph.bpmn.task2;whiteSpace=wrap;rectStyle=rounded;size=10;html=1;container=1;expand=0;collapsible=0;taskMarker=user;" parent="1" vertex="1">
          <mxGeometry x="2170" y="10" width="130" height="80" as="geometry" />
        </mxCell>
        <mxCell id="27J1K7Ltpk_V2WUuVOmh-35" value="&lt;em data-pm-slice=&quot;1 1 [&amp;quot;table&amp;quot;,null,&amp;quot;table_row&amp;quot;,null]&quot;&gt;Исполнитель получил РП состоящий из 1й строки по которой он может внести изменения&lt;/em&gt;" style="points=[[0.25,0,0],[0.5,0,0],[0.75,0,0],[1,0.25,0],[1,0.5,0],[1,0.75,0],[0.75,1,0],[0.5,1,0],[0.25,1,0],[0,0.75,0],[0,0.5,0],[0,0.25,0]];shape=mxgraph.bpmn.task2;whiteSpace=wrap;rectStyle=rounded;size=10;html=1;container=1;expand=0;collapsible=0;taskMarker=user;" parent="1" vertex="1">
          <mxGeometry x="2170" y="330" width="130" height="80" as="geometry" />
        </mxCell>
        <mxCell id="27J1K7Ltpk_V2WUuVOmh-42" style="edgeStyle=orthogonalEdgeStyle;rounded=0;orthogonalLoop=1;jettySize=auto;html=1;" parent="1" source="27J1K7Ltpk_V2WUuVOmh-37" target="27J1K7Ltpk_V2WUuVOmh-41" edge="1">
          <mxGeometry relative="1" as="geometry" />
        </mxCell>
        <mxCell id="27J1K7Ltpk_V2WUuVOmh-44" style="edgeStyle=orthogonalEdgeStyle;rounded=0;orthogonalLoop=1;jettySize=auto;html=1;entryX=0;entryY=0.5;entryDx=0;entryDy=0;entryPerimeter=0;" parent="1" source="27J1K7Ltpk_V2WUuVOmh-37" target="27J1K7Ltpk_V2WUuVOmh-43" edge="1">
          <mxGeometry relative="1" as="geometry">
            <Array as="points">
              <mxPoint x="2425" y="155" />
            </Array>
          </mxGeometry>
        </mxCell>
        <mxCell id="27J1K7Ltpk_V2WUuVOmh-37" value="" style="points=[[0.25,0.25,0],[0.5,0,0],[0.75,0.25,0],[1,0.5,0],[0.75,0.75,0],[0.5,1,0],[0.25,0.75,0],[0,0.5,0]];shape=mxgraph.bpmn.gateway2;html=1;verticalLabelPosition=bottom;labelBackgroundColor=#ffffff;verticalAlign=top;align=center;perimeter=rhombusPerimeter;outlineConnect=0;outline=none;symbol=none;gwType=parallel;" parent="1" vertex="1">
          <mxGeometry x="2400" y="25" width="50" height="50" as="geometry" />
        </mxCell>
        <mxCell id="27J1K7Ltpk_V2WUuVOmh-38" style="edgeStyle=orthogonalEdgeStyle;rounded=0;orthogonalLoop=1;jettySize=auto;html=1;entryX=0;entryY=0.5;entryDx=0;entryDy=0;entryPerimeter=0;" parent="1" source="27J1K7Ltpk_V2WUuVOmh-33" target="27J1K7Ltpk_V2WUuVOmh-37" edge="1">
          <mxGeometry relative="1" as="geometry" />
        </mxCell>
        <mxCell id="27J1K7Ltpk_V2WUuVOmh-57" style="edgeStyle=orthogonalEdgeStyle;rounded=0;orthogonalLoop=1;jettySize=auto;html=1;" parent="1" source="27J1K7Ltpk_V2WUuVOmh-41" target="27J1K7Ltpk_V2WUuVOmh-56" edge="1">
          <mxGeometry relative="1" as="geometry" />
        </mxCell>
        <mxCell id="27J1K7Ltpk_V2WUuVOmh-41" value="&lt;span style=&quot;font-size: 11px; text-wrap-mode: nowrap; background-color: rgb(255, 255, 255);&quot;&gt;1 строку вернул&lt;/span&gt;&lt;br style=&quot;font-size: 11px; text-wrap-mode: nowrap;&quot;&gt;&lt;span style=&quot;font-size: 11px; text-wrap-mode: nowrap; background-color: rgb(255, 255, 255);&quot;&gt;1 строку одобрил&lt;/span&gt;" style="points=[[0.25,0,0],[0.5,0,0],[0.75,0,0],[1,0.25,0],[1,0.5,0],[1,0.75,0],[0.75,1,0],[0.5,1,0],[0.25,1,0],[0,0.75,0],[0,0.5,0],[0,0.25,0]];shape=mxgraph.bpmn.task2;whiteSpace=wrap;rectStyle=rounded;size=10;html=1;container=1;expand=0;collapsible=0;taskMarker=user;" parent="1" vertex="1">
          <mxGeometry x="2360" y="-180" width="130" height="80" as="geometry" />
        </mxCell>
        <mxCell id="27J1K7Ltpk_V2WUuVOmh-43" value="&lt;span style=&quot;font-size: 11px; text-wrap-mode: nowrap; background-color: rgb(255, 255, 255);&quot;&gt;Обе строки одобрил&lt;/span&gt;" style="points=[[0.25,0,0],[0.5,0,0],[0.75,0,0],[1,0.25,0],[1,0.5,0],[1,0.75,0],[0.75,1,0],[0.5,1,0],[0.25,1,0],[0,0.75,0],[0,0.5,0],[0,0.25,0]];shape=mxgraph.bpmn.task2;whiteSpace=wrap;rectStyle=rounded;size=10;html=1;container=1;expand=0;collapsible=0;taskMarker=user;" parent="1" vertex="1">
          <mxGeometry x="2590" y="115" width="130" height="80" as="geometry" />
        </mxCell>
        <mxCell id="27J1K7Ltpk_V2WUuVOmh-51" value="&lt;span style=&quot;font-size: 11px; text-wrap-mode: nowrap; background-color: rgb(255, 255, 255);&quot;&gt;Обе строки вернул&lt;/span&gt;" style="points=[[0.25,0,0],[0.5,0,0],[0.75,0,0],[1,0.25,0],[1,0.5,0],[1,0.75,0],[0.75,1,0],[0.5,1,0],[0.25,1,0],[0,0.75,0],[0,0.5,0],[0,0.25,0]];shape=mxgraph.bpmn.task2;whiteSpace=wrap;rectStyle=rounded;size=10;html=1;container=1;expand=0;collapsible=0;taskMarker=user;" parent="1" vertex="1">
          <mxGeometry x="2590" y="10" width="130" height="80" as="geometry" />
        </mxCell>
        <mxCell id="27J1K7Ltpk_V2WUuVOmh-52" style="edgeStyle=orthogonalEdgeStyle;rounded=0;orthogonalLoop=1;jettySize=auto;html=1;entryX=0;entryY=0.5;entryDx=0;entryDy=0;entryPerimeter=0;" parent="1" source="27J1K7Ltpk_V2WUuVOmh-37" target="27J1K7Ltpk_V2WUuVOmh-51" edge="1">
          <mxGeometry relative="1" as="geometry">
            <mxPoint x="2500" y="100" as="targetPoint" />
            <Array as="points" />
          </mxGeometry>
        </mxCell>
        <mxCell id="27J1K7Ltpk_V2WUuVOmh-58" style="edgeStyle=orthogonalEdgeStyle;rounded=0;orthogonalLoop=1;jettySize=auto;html=1;" parent="1" source="27J1K7Ltpk_V2WUuVOmh-56" target="27J1K7Ltpk_V2WUuVOmh-62" edge="1">
          <mxGeometry relative="1" as="geometry">
            <mxPoint x="2100" y="-315" as="targetPoint" />
          </mxGeometry>
        </mxCell>
        <mxCell id="27J1K7Ltpk_V2WUuVOmh-59" value="строка которую вернул на доработку" style="edgeLabel;html=1;align=center;verticalAlign=middle;resizable=0;points=[];" parent="27J1K7Ltpk_V2WUuVOmh-58" vertex="1" connectable="0">
          <mxGeometry x="-0.0564" y="4" relative="1" as="geometry">
            <mxPoint x="-8" y="-4" as="offset" />
          </mxGeometry>
        </mxCell>
        <mxCell id="27J1K7Ltpk_V2WUuVOmh-60" style="edgeStyle=orthogonalEdgeStyle;rounded=0;orthogonalLoop=1;jettySize=auto;html=1;" parent="1" source="27J1K7Ltpk_V2WUuVOmh-56" target="27J1K7Ltpk_V2WUuVOmh-74" edge="1">
          <mxGeometry relative="1" as="geometry">
            <mxPoint x="2750" y="-315" as="targetPoint" />
          </mxGeometry>
        </mxCell>
        <mxCell id="27J1K7Ltpk_V2WUuVOmh-61" value="строка которую одобрил" style="edgeLabel;html=1;align=center;verticalAlign=middle;resizable=0;points=[];" parent="27J1K7Ltpk_V2WUuVOmh-60" vertex="1" connectable="0">
          <mxGeometry x="-0.2298" y="-1" relative="1" as="geometry">
            <mxPoint x="25" y="-1" as="offset" />
          </mxGeometry>
        </mxCell>
        <mxCell id="27J1K7Ltpk_V2WUuVOmh-56" value="" style="points=[[0.25,0.25,0],[0.5,0,0],[0.75,0.25,0],[1,0.5,0],[0.75,0.75,0],[0.5,1,0],[0.25,0.75,0],[0,0.5,0]];shape=mxgraph.bpmn.gateway2;html=1;verticalLabelPosition=bottom;labelBackgroundColor=#ffffff;verticalAlign=top;align=center;perimeter=rhombusPerimeter;outlineConnect=0;outline=none;symbol=none;gwType=parallel;" parent="1" vertex="1">
          <mxGeometry x="2400" y="-340" width="50" height="50" as="geometry" />
        </mxCell>
        <mxCell id="27J1K7Ltpk_V2WUuVOmh-69" value="" style="edgeStyle=orthogonalEdgeStyle;rounded=0;orthogonalLoop=1;jettySize=auto;html=1;" parent="1" source="27J1K7Ltpk_V2WUuVOmh-62" target="27J1K7Ltpk_V2WUuVOmh-68" edge="1">
          <mxGeometry relative="1" as="geometry" />
        </mxCell>
        <mxCell id="27J1K7Ltpk_V2WUuVOmh-62" value="&lt;em data-pm-slice=&quot;1 1 [&amp;quot;table&amp;quot;,null,&amp;quot;table_row&amp;quot;,null]&quot;&gt;Система направила строку из РП на доработку инициатору (Исполнителю)&lt;/em&gt;" style="points=[[0.25,0,0],[0.5,0,0],[0.75,0,0],[1,0.25,0],[1,0.5,0],[1,0.75,0],[0.75,1,0],[0.5,1,0],[0.25,1,0],[0,0.75,0],[0,0.5,0],[0,0.25,0]];shape=mxgraph.bpmn.task2;whiteSpace=wrap;rectStyle=rounded;size=10;html=1;container=1;expand=0;collapsible=0;taskMarker=service;" parent="1" vertex="1">
          <mxGeometry x="2360" y="-560" width="130" height="80" as="geometry" />
        </mxCell>
        <mxCell id="27J1K7Ltpk_V2WUuVOmh-97" value="" style="edgeStyle=orthogonalEdgeStyle;rounded=0;orthogonalLoop=1;jettySize=auto;html=1;" parent="1" source="27J1K7Ltpk_V2WUuVOmh-63" target="27J1K7Ltpk_V2WUuVOmh-96" edge="1">
          <mxGeometry relative="1" as="geometry" />
        </mxCell>
        <mxCell id="27J1K7Ltpk_V2WUuVOmh-63" value="&lt;em data-pm-slice=&quot;1 1 [&amp;quot;table&amp;quot;,null,&amp;quot;table_row&amp;quot;,null]&quot;&gt;Добавил 3 строки в РП&lt;/em&gt;" style="points=[[0.25,0,0],[0.5,0,0],[0.75,0,0],[1,0.25,0],[1,0.5,0],[1,0.75,0],[0.75,1,0],[0.5,1,0],[0.25,1,0],[0,0.75,0],[0,0.5,0],[0,0.25,0]];shape=mxgraph.bpmn.task2;whiteSpace=wrap;rectStyle=rounded;size=10;html=1;container=1;expand=0;collapsible=0;taskMarker=user;" parent="1" vertex="1">
          <mxGeometry x="-120" y="175" width="130" height="80" as="geometry" />
        </mxCell>
        <mxCell id="27J1K7Ltpk_V2WUuVOmh-65" value="&lt;em data-pm-slice=&quot;1 1 [&amp;quot;table&amp;quot;,null,&amp;quot;table_row&amp;quot;,null]&quot;&gt;Отправил РП на согласование Заказчику&lt;/em&gt;" style="points=[[0.25,0,0],[0.5,0,0],[0.75,0,0],[1,0.25,0],[1,0.5,0],[1,0.75,0],[0.75,1,0],[0.5,1,0],[0.25,1,0],[0,0.75,0],[0,0.5,0],[0,0.25,0]];shape=mxgraph.bpmn.task2;whiteSpace=wrap;rectStyle=rounded;size=10;html=1;container=1;expand=0;collapsible=0;taskMarker=user;" parent="1" vertex="1">
          <mxGeometry x="260" y="175" width="130" height="80" as="geometry" />
        </mxCell>
        <mxCell id="27J1K7Ltpk_V2WUuVOmh-67" style="edgeStyle=orthogonalEdgeStyle;rounded=0;orthogonalLoop=1;jettySize=auto;html=1;entryX=0;entryY=0.5;entryDx=0;entryDy=0;entryPerimeter=0;" parent="1" source="27J1K7Ltpk_V2WUuVOmh-65" target="27J1K7Ltpk_V2WUuVOmh-4" edge="1">
          <mxGeometry relative="1" as="geometry" />
        </mxCell>
        <mxCell id="27J1K7Ltpk_V2WUuVOmh-71" value="" style="edgeStyle=orthogonalEdgeStyle;rounded=0;orthogonalLoop=1;jettySize=auto;html=1;" parent="1" source="27J1K7Ltpk_V2WUuVOmh-68" target="27J1K7Ltpk_V2WUuVOmh-70" edge="1">
          <mxGeometry relative="1" as="geometry" />
        </mxCell>
        <mxCell id="27J1K7Ltpk_V2WUuVOmh-68" value="&lt;em data-pm-slice=&quot;1 1 [&amp;quot;table&amp;quot;,null,&amp;quot;table_row&amp;quot;,null]&quot;&gt;Система направила уведомление на почту инициатору по доработке строки РП&lt;/em&gt;" style="points=[[0.25,0,0],[0.5,0,0],[0.75,0,0],[1,0.25,0],[1,0.5,0],[1,0.75,0],[0.75,1,0],[0.5,1,0],[0.25,1,0],[0,0.75,0],[0,0.5,0],[0,0.25,0]];shape=mxgraph.bpmn.task2;whiteSpace=wrap;rectStyle=rounded;size=10;html=1;container=1;expand=0;collapsible=0;taskMarker=service;" parent="1" vertex="1">
          <mxGeometry x="2120" y="-560" width="130" height="80" as="geometry" />
        </mxCell>
        <mxCell id="27J1K7Ltpk_V2WUuVOmh-70" value="&lt;em data-pm-slice=&quot;1 1 [&amp;quot;table&amp;quot;,null,&amp;quot;table_row&amp;quot;,null]&quot;&gt;Исполнитель зашел в РП и внес требуемые изменения в строку&lt;/em&gt;" style="points=[[0.25,0,0],[0.5,0,0],[0.75,0,0],[1,0.25,0],[1,0.5,0],[1,0.75,0],[0.75,1,0],[0.5,1,0],[0.25,1,0],[0,0.75,0],[0,0.5,0],[0,0.25,0]];shape=mxgraph.bpmn.task2;whiteSpace=wrap;rectStyle=rounded;size=10;html=1;container=1;expand=0;collapsible=0;taskMarker=user;" parent="1" vertex="1">
          <mxGeometry x="1880" y="-560" width="130" height="80" as="geometry" />
        </mxCell>
        <mxCell id="27J1K7Ltpk_V2WUuVOmh-72" value="" style="points=[[0.145,0.145,0],[0.5,0,0],[0.855,0.145,0],[1,0.5,0],[0.855,0.855,0],[0.5,1,0],[0.145,0.855,0],[0,0.5,0]];shape=mxgraph.bpmn.event;html=1;verticalLabelPosition=bottom;labelBackgroundColor=#ffffff;verticalAlign=top;align=center;perimeter=ellipsePerimeter;outlineConnect=0;aspect=fixed;outline=standard;symbol=timer;" parent="27J1K7Ltpk_V2WUuVOmh-70" vertex="1">
          <mxGeometry x="100" y="65" width="30" height="30" as="geometry" />
        </mxCell>
        <mxCell id="27J1K7Ltpk_V2WUuVOmh-73" style="edgeStyle=orthogonalEdgeStyle;rounded=0;orthogonalLoop=1;jettySize=auto;html=1;entryX=0.5;entryY=0;entryDx=0;entryDy=0;entryPerimeter=0;" parent="1" source="27J1K7Ltpk_V2WUuVOmh-70" target="27J1K7Ltpk_V2WUuVOmh-96" edge="1">
          <mxGeometry relative="1" as="geometry" />
        </mxCell>
        <mxCell id="27J1K7Ltpk_V2WUuVOmh-76" value="" style="edgeStyle=orthogonalEdgeStyle;rounded=0;orthogonalLoop=1;jettySize=auto;html=1;" parent="1" source="27J1K7Ltpk_V2WUuVOmh-74" target="27J1K7Ltpk_V2WUuVOmh-75" edge="1">
          <mxGeometry relative="1" as="geometry" />
        </mxCell>
        <mxCell id="27J1K7Ltpk_V2WUuVOmh-74" value="Ответственный пользователь от Банка получил уведомление на почту о РП&amp;nbsp;" style="points=[[0.25,0,0],[0.5,0,0],[0.75,0,0],[1,0.25,0],[1,0.5,0],[1,0.75,0],[0.75,1,0],[0.5,1,0],[0.25,1,0],[0,0.75,0],[0,0.5,0],[0,0.25,0]];shape=mxgraph.bpmn.task2;whiteSpace=wrap;rectStyle=rounded;size=10;html=1;container=1;expand=0;collapsible=0;taskMarker=user;" parent="1" vertex="1">
          <mxGeometry x="2620" y="-355" width="130" height="80" as="geometry" />
        </mxCell>
        <mxCell id="27J1K7Ltpk_V2WUuVOmh-78" style="edgeStyle=orthogonalEdgeStyle;rounded=0;orthogonalLoop=1;jettySize=auto;html=1;" parent="1" source="27J1K7Ltpk_V2WUuVOmh-75" target="27J1K7Ltpk_V2WUuVOmh-77" edge="1">
          <mxGeometry relative="1" as="geometry" />
        </mxCell>
        <mxCell id="27J1K7Ltpk_V2WUuVOmh-75" value="Зашел в РП" style="points=[[0.25,0,0],[0.5,0,0],[0.75,0,0],[1,0.25,0],[1,0.5,0],[1,0.75,0],[0.75,1,0],[0.5,1,0],[0.25,1,0],[0,0.75,0],[0,0.5,0],[0,0.25,0]];shape=mxgraph.bpmn.task2;whiteSpace=wrap;rectStyle=rounded;size=10;html=1;container=1;expand=0;collapsible=0;taskMarker=user;" parent="1" vertex="1">
          <mxGeometry x="2830" y="-355" width="130" height="80" as="geometry" />
        </mxCell>
        <mxCell id="27J1K7Ltpk_V2WUuVOmh-81" style="edgeStyle=orthogonalEdgeStyle;rounded=0;orthogonalLoop=1;jettySize=auto;html=1;" parent="1" source="27J1K7Ltpk_V2WUuVOmh-77" target="27J1K7Ltpk_V2WUuVOmh-80" edge="1">
          <mxGeometry relative="1" as="geometry" />
        </mxCell>
        <mxCell id="27J1K7Ltpk_V2WUuVOmh-83" style="edgeStyle=orthogonalEdgeStyle;rounded=0;orthogonalLoop=1;jettySize=auto;html=1;" parent="1" source="27J1K7Ltpk_V2WUuVOmh-77" target="27J1K7Ltpk_V2WUuVOmh-82" edge="1">
          <mxGeometry relative="1" as="geometry" />
        </mxCell>
        <mxCell id="27J1K7Ltpk_V2WUuVOmh-77" value="" style="points=[[0.25,0.25,0],[0.5,0,0],[0.75,0.25,0],[1,0.5,0],[0.75,0.75,0],[0.5,1,0],[0.25,0.75,0],[0,0.5,0]];shape=mxgraph.bpmn.gateway2;html=1;verticalLabelPosition=bottom;labelBackgroundColor=#ffffff;verticalAlign=top;align=center;perimeter=rhombusPerimeter;outlineConnect=0;outline=none;symbol=none;gwType=parallel;" parent="1" vertex="1">
          <mxGeometry x="3070" y="-340" width="50" height="50" as="geometry" />
        </mxCell>
        <mxCell id="27J1K7Ltpk_V2WUuVOmh-79" value="Пользователь от Банка увидит в РП одну строку, т.к. из 3х изначальных строк 2 разными согласующими были направлены на доработку и одна дошла до согласования банка" style="shape=callout;whiteSpace=wrap;html=1;perimeter=calloutPerimeter;" parent="1" vertex="1">
          <mxGeometry x="2802" y="-490" width="185" height="135" as="geometry" />
        </mxCell>
        <mxCell id="27J1K7Ltpk_V2WUuVOmh-85" value="" style="edgeStyle=orthogonalEdgeStyle;rounded=0;orthogonalLoop=1;jettySize=auto;html=1;" parent="1" source="27J1K7Ltpk_V2WUuVOmh-80" target="27J1K7Ltpk_V2WUuVOmh-84" edge="1">
          <mxGeometry relative="1" as="geometry" />
        </mxCell>
        <mxCell id="27J1K7Ltpk_V2WUuVOmh-80" value="РП не согласован" style="points=[[0.25,0,0],[0.5,0,0],[0.75,0,0],[1,0.25,0],[1,0.5,0],[1,0.75,0],[0.75,1,0],[0.5,1,0],[0.25,1,0],[0,0.75,0],[0,0.5,0],[0,0.25,0]];shape=mxgraph.bpmn.task2;whiteSpace=wrap;rectStyle=rounded;size=10;html=1;container=1;expand=0;collapsible=0;taskMarker=user;" parent="1" vertex="1">
          <mxGeometry x="3030" y="-500" width="130" height="80" as="geometry" />
        </mxCell>
        <mxCell id="27J1K7Ltpk_V2WUuVOmh-88" style="edgeStyle=orthogonalEdgeStyle;rounded=0;orthogonalLoop=1;jettySize=auto;html=1;" parent="1" source="27J1K7Ltpk_V2WUuVOmh-82" target="27J1K7Ltpk_V2WUuVOmh-87" edge="1">
          <mxGeometry relative="1" as="geometry" />
        </mxCell>
        <mxCell id="27J1K7Ltpk_V2WUuVOmh-82" value="РП согласован" style="points=[[0.25,0,0],[0.5,0,0],[0.75,0,0],[1,0.25,0],[1,0.5,0],[1,0.75,0],[0.75,1,0],[0.5,1,0],[0.25,1,0],[0,0.75,0],[0,0.5,0],[0,0.25,0]];shape=mxgraph.bpmn.task2;whiteSpace=wrap;rectStyle=rounded;size=10;html=1;container=1;expand=0;collapsible=0;taskMarker=user;" parent="1" vertex="1">
          <mxGeometry x="3220" y="-355" width="130" height="80" as="geometry" />
        </mxCell>
        <mxCell id="27J1K7Ltpk_V2WUuVOmh-84" value="РП направлен на доработку инициатору" style="points=[[0.25,0,0],[0.5,0,0],[0.75,0,0],[1,0.25,0],[1,0.5,0],[1,0.75,0],[0.75,1,0],[0.5,1,0],[0.25,1,0],[0,0.75,0],[0,0.5,0],[0,0.25,0]];shape=mxgraph.bpmn.task2;whiteSpace=wrap;rectStyle=rounded;size=10;html=1;container=1;expand=0;collapsible=0;taskMarker=service;" parent="1" vertex="1">
          <mxGeometry x="3030" y="-660" width="130" height="80" as="geometry" />
        </mxCell>
        <mxCell id="27J1K7Ltpk_V2WUuVOmh-86" style="edgeStyle=orthogonalEdgeStyle;rounded=0;orthogonalLoop=1;jettySize=auto;html=1;entryX=0.25;entryY=0;entryDx=0;entryDy=0;entryPerimeter=0;" parent="1" source="27J1K7Ltpk_V2WUuVOmh-84" target="27J1K7Ltpk_V2WUuVOmh-96" edge="1">
          <mxGeometry relative="1" as="geometry" />
        </mxCell>
        <mxCell id="27J1K7Ltpk_V2WUuVOmh-87" value="" style="points=[[0.145,0.145,0],[0.5,0,0],[0.855,0.145,0],[1,0.5,0],[0.855,0.855,0],[0.5,1,0],[0.145,0.855,0],[0,0.5,0]];shape=mxgraph.bpmn.event;html=1;verticalLabelPosition=bottom;labelBackgroundColor=#ffffff;verticalAlign=top;align=center;perimeter=ellipsePerimeter;outlineConnect=0;aspect=fixed;outline=end;symbol=terminate2;" parent="1" vertex="1">
          <mxGeometry x="3430" y="-340" width="50" height="50" as="geometry" />
        </mxCell>
        <mxCell id="27J1K7Ltpk_V2WUuVOmh-89" value="Деньги по единственной согласованной строке могут расходоваться" style="shape=callout;whiteSpace=wrap;html=1;perimeter=calloutPerimeter;" parent="1" vertex="1">
          <mxGeometry x="3362.5" y="-475" width="185" height="135" as="geometry" />
        </mxCell>
        <mxCell id="27J1K7Ltpk_V2WUuVOmh-90" style="edgeStyle=orthogonalEdgeStyle;rounded=0;orthogonalLoop=1;jettySize=auto;html=1;entryX=1;entryY=0.5;entryDx=0;entryDy=0;entryPerimeter=0;jumpStyle=arc;" parent="1" source="27J1K7Ltpk_V2WUuVOmh-51" target="27J1K7Ltpk_V2WUuVOmh-62" edge="1">
          <mxGeometry relative="1" as="geometry">
            <Array as="points">
              <mxPoint x="2780" y="50" />
              <mxPoint x="2780" y="-520" />
            </Array>
          </mxGeometry>
        </mxCell>
        <mxCell id="27J1K7Ltpk_V2WUuVOmh-91" style="edgeStyle=orthogonalEdgeStyle;rounded=0;orthogonalLoop=1;jettySize=auto;html=1;entryX=0.5;entryY=1;entryDx=0;entryDy=0;entryPerimeter=0;" parent="1" source="27J1K7Ltpk_V2WUuVOmh-43" target="27J1K7Ltpk_V2WUuVOmh-82" edge="1">
          <mxGeometry relative="1" as="geometry" />
        </mxCell>
        <mxCell id="27J1K7Ltpk_V2WUuVOmh-95" style="edgeStyle=orthogonalEdgeStyle;rounded=0;orthogonalLoop=1;jettySize=auto;html=1;entryX=0.5;entryY=1;entryDx=0;entryDy=0;entryPerimeter=0;" parent="1" source="27J1K7Ltpk_V2WUuVOmh-35" target="27J1K7Ltpk_V2WUuVOmh-96" edge="1">
          <mxGeometry relative="1" as="geometry">
            <Array as="points">
              <mxPoint x="2235" y="450" />
              <mxPoint x="155" y="450" />
            </Array>
          </mxGeometry>
        </mxCell>
        <mxCell id="27J1K7Ltpk_V2WUuVOmh-96" value="&lt;em data-pm-slice=&quot;1 1 [&amp;quot;table&amp;quot;,null,&amp;quot;table_row&amp;quot;,null]&quot;&gt;Внес необходимые данные в строки РП&lt;/em&gt;" style="points=[[0.25,0,0],[0.5,0,0],[0.75,0,0],[1,0.25,0],[1,0.5,0],[1,0.75,0],[0.75,1,0],[0.5,1,0],[0.25,1,0],[0,0.75,0],[0,0.5,0],[0,0.25,0]];shape=mxgraph.bpmn.task2;whiteSpace=wrap;rectStyle=rounded;size=10;html=1;container=1;expand=0;collapsible=0;taskMarker=user;" parent="1" vertex="1">
          <mxGeometry x="90" y="175" width="130" height="80" as="geometry" />
        </mxCell>
        <mxCell id="27J1K7Ltpk_V2WUuVOmh-98" style="edgeStyle=orthogonalEdgeStyle;rounded=0;orthogonalLoop=1;jettySize=auto;html=1;entryX=0;entryY=0.5;entryDx=0;entryDy=0;entryPerimeter=0;" parent="1" source="27J1K7Ltpk_V2WUuVOmh-96" target="27J1K7Ltpk_V2WUuVOmh-65" edge="1">
          <mxGeometry relative="1" as="geometry" />
        </mxCell>
        <mxCell id="27J1K7Ltpk_V2WUuVOmh-99" value="&lt;em data-pm-slice=&quot;1 1 [&amp;quot;table&amp;quot;,null,&amp;quot;table_row&amp;quot;,null]&quot;&gt;Система направила уведомление Заказчику на почту&amp;nbsp;&lt;/em&gt;" style="points=[[0.25,0,0],[0.5,0,0],[0.75,0,0],[1,0.25,0],[1,0.5,0],[1,0.75,0],[0.75,1,0],[0.5,1,0],[0.25,1,0],[0,0.75,0],[0,0.5,0],[0,0.25,0]];shape=mxgraph.bpmn.task2;whiteSpace=wrap;rectStyle=rounded;size=10;html=1;container=1;expand=0;collapsible=0;taskMarker=service;" parent="1" vertex="1">
          <mxGeometry x="610" y="175" width="130" height="80" as="geometry" />
        </mxCell>
        <mxCell id="27J1K7Ltpk_V2WUuVOmh-102" value="" style="points=[[0.145,0.145,0],[0.5,0,0],[0.855,0.145,0],[1,0.5,0],[0.855,0.855,0],[0.5,1,0],[0.145,0.855,0],[0,0.5,0]];shape=mxgraph.bpmn.event;html=1;verticalLabelPosition=bottom;labelBackgroundColor=#ffffff;verticalAlign=top;align=center;perimeter=ellipsePerimeter;outlineConnect=0;aspect=fixed;outline=standard;symbol=message;" parent="27J1K7Ltpk_V2WUuVOmh-99" vertex="1">
          <mxGeometry x="93" y="55" width="37" height="37" as="geometry" />
        </mxCell>
        <mxCell id="27J1K7Ltpk_V2WUuVOmh-103" style="edgeStyle=orthogonalEdgeStyle;rounded=0;orthogonalLoop=1;jettySize=auto;html=1;" parent="1" source="27J1K7Ltpk_V2WUuVOmh-102" target="27J1K7Ltpk_V2WUuVOmh-6" edge="1">
          <mxGeometry relative="1" as="geometry">
            <Array as="points">
              <mxPoint x="721" y="290" />
              <mxPoint x="850" y="290" />
            </Array>
          </mxGeometry>
        </mxCell>
        <mxCell id="EP9T8VElIk2iROknSzBj-1" value="&lt;b&gt;реализовать логику в бп с созданием новых&amp;nbsp;&lt;/b&gt;&lt;div&gt;&lt;b&gt;документов по отмененным строкам рп&amp;nbsp;&amp;nbsp;&lt;/b&gt;&lt;/div&gt;&lt;div&gt;&lt;b&gt;после клика соглаующего по кнопке направить на согласование дальше - инициатору должно приходить&lt;/b&gt;&lt;/div&gt;&lt;div&gt;&lt;b&gt;письмо с пояснением что произошло и что делтать дальше&lt;/b&gt;&lt;/div&gt;&lt;div&gt;&lt;b&gt;если согласющий(е) отклонили все строки, то рп атоматически переходит в статус &quot;отклонен&quot; и создается новый РП&lt;/b&gt;&lt;/div&gt;&lt;div&gt;&lt;b&gt;у инициатора&lt;/b&gt;&lt;/div&gt;&lt;div&gt;&lt;b&gt;&lt;br&gt;&lt;/b&gt;&lt;/div&gt;&lt;div&gt;&lt;b&gt;подумать над теми рп, которые сейчас на согласовании и что делаем с ними, создаем ли новые рп?&lt;/b&gt;&lt;/div&gt;" style="text;html=1;align=center;verticalAlign=middle;resizable=0;points=[];autosize=1;strokeColor=none;fillColor=none;" vertex="1" parent="1">
          <mxGeometry x="320" y="-260" width="730" height="130" as="geometry" />
        </mxCell>
      </root>
    </mxGraphModel>
  </diagram>
</mxfile>
